/* XPM */
static char *Free_Converter_com_rsz_1rsz_11normal_34711307[] = {
/* columns rows colors chars-per-pixel */
"57 70 256 2 ",
"   c #EF1625",
".  c #DB2B22",
"X  c #F2232B",
"o  c #AE5924",
"O  c #A86B31",
"+  c #F53E4B",
"@  c #E47877",
"#  c #54AF3F",
"$  c #53B33D",
"%  c #5DB43D",
"&  c #53BC3C",
"*  c #5DBD3A",
"=  c #55B832",
"-  c #4FB43B",
";  c #62B33B",
":  c #5CBB41",
">  c #57B846",
",  c #5FAC45",
"<  c #63B64A",
"1  c #62B745",
"2  c #6ABB57",
"3  c #71BD59",
"4  c #6FB167",
"5  c #54C546",
"6  c #66C148",
"7  c #6DC15D",
"8  c #75C558",
"9  c #79C465",
"0  c #83C46A",
"q  c #84C876",
"w  c #92C97F",
"e  c #99C36F",
"r  c #6ECC8B",
"t  c #1FA8DD",
"y  c #05AEEE",
"u  c #1DACE5",
"i  c #12A6E9",
"p  c #14ADEE",
"a  c #1BACEB",
"s  c #15A9E3",
"d  c #1CB2EC",
"f  c #14B1E9",
"g  c #07AAF1",
"h  c #12ACF1",
"j  c #19AEF1",
"k  c #13B1F1",
"l  c #1AB3F0",
"z  c #04B2EB",
"x  c #24ACEB",
"c  c #39AEEF",
"v  c #22B4ED",
"b  c #2DB5EC",
"n  c #2ABAED",
"m  c #27B3E5",
"M  c #34B2ED",
"N  c #33BAEB",
"B  c #3ABBE9",
"V  c #27AEF2",
"C  c #24B3F2",
"Z  c #2CB5F2",
"A  c #24B9F2",
"S  c #2DB8F0",
"D  c #33BCF2",
"F  c #3CBCF3",
"G  c #39B7F3",
"H  c #1387CD",
"J  c #40B7DA",
"K  c #66AFDD",
"L  c #4ABDEE",
"P  c #44BCEB",
"I  c #56BDED",
"U  c #43BEF3",
"Y  c #4CBEF2",
"T  c #54B9F1",
"R  c #3EC3EF",
"E  c #36C1F3",
"W  c #42C4ED",
"Q  c #4CC3EC",
"!  c #4DC4E7",
"~  c #54C5EC",
"^  c #5CC8EE",
"/  c #5AC6EB",
"(  c #45C3F3",
")  c #4BC3F3",
"_  c #4ECBF4",
"`  c #46C9F2",
"'  c #53C4F3",
"]  c #5AC3F3",
"[  c #5BCBF2",
"{  c #53C6F8",
"}  c #5ED2F5",
"|  c #6CCBEB",
" . c #66C8EE",
".. c #76CDEF",
"X. c #64D4EE",
"o. c #7BD4ED",
"O. c #63CCF3",
"+. c #6BCCF5",
"@. c #66C9F7",
"#. c #77CCF5",
"$. c #6BD1F5",
"%. c #69D3F7",
"&. c #78D4F6",
"*. c #F78280",
"=. c #CCAD82",
"-. c #F6B1B2",
";. c #97CD8A",
":. c #96CF8E",
">. c #A0CE8B",
",. c #B0CD9C",
"<. c #A2D68A",
"1. c #A8D8A5",
"2. c #AED9B5",
"3. c #BDE4B0",
"4. c #C6DDBC",
"5. c #A7B2D6",
"6. c #B6B9DB",
"7. c #A7B1CE",
"8. c #8EB5E0",
"9. c #C0BDDA",
"0. c #B8C0D9",
"q. c #BFE2D6",
"w. c #8BD6EE",
"e. c #84CEF5",
"r. c #85D8F3",
"t. c #8BDAF5",
"y. c #87D8F8",
"u. c #95DCF4",
"i. c #9DDCF1",
"p. c #9CDAF9",
"a. c #96D6F6",
"s. c #96D5EC",
"d. c #ADC9E1",
"f. c #B6CAE7",
"g. c #A8D7EA",
"h. c #BDD9E6",
"j. c #A3DEF4",
"k. c #AADBF5",
"l. c #A7DFFA",
"z. c #B6DEF6",
"x. c #9BE3F9",
"c. c #ACE5F4",
"v. c #A3E3FA",
"b. c #A9E4F8",
"n. c #B2E5F7",
"m. c #B4E5FA",
"M. c #BBE4F9",
"N. c #B6EBFB",
"B. c #BBEBFC",
"V. c #B8EAF5",
"C. c #BEF0FD",
"Z. c #B7E5EF",
"A. c #C4C5DB",
"S. c #D2CEDB",
"D. c #CDD1DC",
"F. c #CDD7D2",
"G. c #F8D6D7",
"H. c #CAE6C8",
"J. c #DDEECC",
"K. c #D9ECD5",
"L. c #CEE9D3",
"P. c #C7CBE3",
"I. c #C8C6E5",
"U. c #D6C9E3",
"Y. c #C7D6E7",
"T. c #DADCEB",
"R. c #D7D7E8",
"E. c #C6DAF3",
"W. c #DADAF2",
"Q. c #E0DEEA",
"!. c #D4E4EC",
"~. c #DCEDED",
"^. c #DDE7E8",
"/. c #DDF4EF",
"(. c #DAF2E2",
"). c #C2E6F5",
"_. c #CCE3F4",
"`. c #C4EBF4",
"'. c #CCECF6",
"]. c #C3EBFB",
"[. c #CBEDFB",
"{. c #C6E4FB",
"}. c #D5E6F4",
"|. c #DAE5F3",
" X c #D4ECF3",
".X c #DBECF4",
"XX c #D9E6FB",
"oX c #D4ECFC",
"OX c #DCEDFC",
"+X c #D6E6F8",
"@X c #CCF1F6",
"#X c #CBF4FD",
"$X c #C4F1FB",
"%X c #D3F1F4",
"&X c #DDF4F4",
"*X c #DEFAF5",
"=X c #D5F3FC",
"-X c #DDF4FD",
";X c #DDF9FC",
":X c #D4F8FD",
">X c #C7E3EF",
",X c #E7EEEC",
"<X c #EDECEC",
"1X c #E6E8E8",
"2X c #F3EEED",
"3X c #FFE4E0",
"4X c #E4F5EF",
"5X c #EEF3ED",
"6X c #E5F9EE",
"7X c #F3F2EF",
"8X c #E3EEF5",
"9X c #EDEDF4",
"0X c #E3EEFD",
"qX c #EBEEFB",
"wX c #E6E4F2",
"eX c #F2EEF4",
"rX c #FCECF7",
"tX c #F2EDFA",
"yX c #FAEFFB",
"uX c #E3F4F4",
"iX c #ECF4F4",
"pX c #E2F9F4",
"aX c #EBF9F5",
"sX c #E3F4FD",
"dX c #EBF4FC",
"fX c #E3F9FD",
"gX c #ECFAFD",
"hX c #F3F3F4",
"jX c #FAF4F4",
"kX c #F4FAF4",
"lX c #FBFAF5",
"zX c #F3F4FB",
"xX c #FBF5FC",
"cX c #F3FBFD",
"vX c gray100",
"bX c black",
"nX c black",
"mX c black",
"MX c black",
"NX c black",
"BX c black",
"VX c black",
"CX c black",
"ZX c black",
"AX c black",
"SX c black",
"DX c black",
"FX c black",
"GX c black",
"HX c black",
"JX c black",
"KX c black",
"LX c black",
"PX c black",
"IX c black",
"UX c black",
/* pixels */
"vXvXvXvXvXvX8Xf.xXcXzXxXxXxXcXxXzXxXvXT.A.vXvXvXvXvXvXvXvXvXvXvXvXvXvXvXvXvXvXvXvXvXvXvXvXvXvXvXvXvXvXvXvXvXvXvXvX",
"vXvXvXvXvXvXxXeXtXiXdXhXqXhXzXqXiXtXjXzXR.dXvXvXvXvXvXvXvXvXvXvXvXvXvXvXvXvXxXvXvXvXvXvXvXvXvXvXvXvXvXvXvXvXvXvXvX",
"vXvXvXvXvXJ.;.H.zXzX7XyX7XiXhXjXzXhXyX2XcXkXxXvXvXvXvXvXvXvXvXvXvXcXgXvXvXvXvXvXvXvXvXvXvXvXvXvXvXvXvXvXvXvXvXvXvX",
"vXvXvXvX5X2 = < J.xXiXeXjXcXeXzXkX9XiXeXhX<XR.jXvXvXvXvXcX=Xu.{ _ E D ( ` ' #.b.-XvXvXvXvXvXvXvXvXvXvXvXvXvXvXvXvX",
"vXvXvXvXR.4 6 = q kXeXzXxXeXhXzXeXxXiXhXhXzXP.U.vXvXvX:X) p ( %.t.v.].x.y.&._ D A ~ p.cXvXvXvXvXvXvXvXvXvXvXvXvXvX",
"vXvXvXvXzXL.< > $ ,.xX5XdX2XzXhXtXhXhXhXdXzXiXW.vXvX@Xd  .[.cXxXkXcXgXgXcXvXgX:XB.%.D C r.dXvXvXvXvXvXvXvXvXvXvXvX",
"vXvXvXcX7XvX1.: : * H.xXhXzXhXhXtXkXxXzX2XhXxXeXzXdXV &.cXdXfX/.-X-X-X4X;XOXsXsXcXgXfXv.D v x.vXvXvXvXvXvXvXvXvXvX",
"vXvXwXA.zXhXxXw $ 1 9 <XeXhXhXhX9XjXlXiXzXzX2XdX<XK D cXsX&XfXOXsXsXsXsX-XuXuXuX-XsXsXgXgXa.f ) fXvXvXvXvXvXvXvXvX",
"vXvXA.R.xX5XcX7X7 $ * <.xXrXdXdXhXtXjXzX7XdXeXlX}.H g.cX-X-XfXdXsXuXdX=XsXsXsX-X-X/.sX-XsXxX-X_ C `.vXvXvXvXvXvXvX",
"vXxXwXxXhXzX2XxXL.5 5 % 4.xXeXzXhXjXzXhXeXhXdXlXI M R.sXuXsXsXsXfXsXfXuXsXdX-XfXsXsX0XsXuX;XgXgXy.j m.vXvXvXvXvXvX",
"xXvXiXtXzXzXhXeXxX1.; 5 3 ,XxXhXhX2XqXhXxXdXjXM.t l.x.|.uXuXsXpXsX-XsXuXuX;XuXuX-XdX-XfXsXfX&X-XxXu.g ].vXvXvXvXvX",
"|.T.jXdXhXiXeXzXzXkX;.% & >.yXkXdXgXhXyXlX<XxXP o.0Xt.f.P.fX-XfXsXuX;XfXsX;XsX-XdX-XuX&X-XsXuXsX%XvXt.d =XvXvXvXvX",
"6.wXxXhXzXhXiXhX2XxXK.7 & % 4.xX7XyXhXuXjXxXs.m _.!.}._.5.}.uXuX&XuX-XiX-XsXsXsX&XsXsXsXiX;XsXsXsXOXvX^ F cXvXvXvX",
"1XzXzXiXjXtXjXcXhXdXcXH.< > 8 ^.xXdXiXzXjXiXx e.8XOXOXOXY.-XsXsXsXsXsXuXfX-XdX-XiXsX-X-XuXsXsXfXfXsX;XgXN &.vXvXvX",
"xXhXeXhXaXzXhX2XhXhXhXxX:.1 & <.tXhXhXeXxX..V 8X~. X&Xz.a.sX-XfXfX0XuXuX-XuXuXfX-XsX-XuXsX;XuX-XuXuXfXzXB.l _.vXvX",
"gXzX9XxXeX2XcXzXhXhX7XxXgX9 % - 3.cXiXlX8Xu k.8XoX.X.Xh.8.B.sXfX&XsX&XfXfXsXsX8X-XfXpXuXsXuXdXsXsXfX-X&XgX{ [ vXvX",
"cXhXhXkXtXzXeXyXhXhXcX5XxX(.2 % 2 1XzXlXI L dX}. XOX}.5.{.;XaXfXsXdX0XsX-XsX;XfXuXfX-X-X0XuX-X-XuX-XpXsXgXn.A ;XvX",
"zXdXzXhXjXhXiXjXeXzXeXjXiXvX3.> ; 0 vXE.s V.uX}..X.X_.!.;XdX_.M.dXuXOX-XuXuXfXfX-XsXsXgXsXfXuXfX8X-XsXsX-XgXb a.vX",
"kXtXkXtXhXeXtXyXgXtXkXdXhXhXxX>.: - 3.T / eXXX|.|.%X|.gXsXdX#Xa.m.pX0X;XgX-XpX-XsXsX0X&X;XsXuXfX-X0X-XsX-XcXO.$.vX",
"U.qXhXhXtX5XdXzX2XhXhXhXhX9XtXaX9 & , J {./._.-XoXI._.fXuX-XdX#XN.uXsXaX-XsXsX-XaX-XsXsXsXuXsXfXfXsXuXsX&XvXa.R vX",
"D.U.hXdXeXiXtXxXcXeXdXzX2XlXhXxXK.< = q 0X XOXOXh.7.uX-XfXuXfXfXdXsXV.`.cXfX-XsXOXsXsXOXuX;XsX-XuXuXsXsXuXzXx.B vX",
"zXqXxXzXkXcX9XeXjXzX2XhXcXqXeXdXvX2.$ = 1.OX.X.XE._.fXsXsX;XuX-XsXsX$Xp.k. XuXfX&XfXuXuXsXfXuXsXfXsX-XsX-XcXp.W vX",
"vXvXeXQ.hXzX9XzXjXtXhXzX9XxXeXzX~.Z r * > H.&X|.dXsXsXpXuXsXdX-XsX&XdX:Xx.oXsX8XgXsXsXsX-XsX&X;XsXsXpXsX-XvX[ @.vX",
"vXvXeX6.wXlXeX5XzXzX2XhXeX7XdXxX| U &X3 $ 0 XXd..XfXuXsX0X-XsX;XsX8XsXsXgXsXfXj.m.OX-XiXuXsXdXsX&XsX-XuXiXB.p B.vX",
"vXvXvXT.S.hXzXhXhXiXkXtXhXtXlX_.i z.8XF.> ; :.W.sXsXsX0X;XuXsX*XsXsXsXuX-XuXfX[.u.'.sXoX-X-XuXsXiXfXsXsXdXL Q vXvX",
"vXvXvXxXvXdXhXdXzXzXtXhXzX9XlXT I 8X_.-X1.5 < =.G.sXsXsXfXuXsXfXsX-XsXfX-XuXuXsXfX-XgX).u.v.-XsX[.m.Z.cXB.f $XvXvX",
"vXvXvXvXvX9XS.xXtX2XzXhXtXxXz.s _.0X X XdXe 5 O + <X0X&XuX-XsXuXuXsX&XuXdX-XsXsXsXuXuXsX#X'.;XuXb.c.B.xX..` vXvXvX",
"vXvXvXvXvXkXI.U.cXkXiXhXkXzXc | dXoX|.'.gX@ o . X 3XfXuXsX-XsXsXsXsXsXsX&XuXsX-XdX0X:XsXfXaXdX&XfXfXgX Xd N.vXvXvX",
"vXvXvXvXvXvXhXT.zXdXzXtXjXp.m  X~.OX+X}.E.-.X   *.fXsX-XsXuXfXsX-X&XdX-XfXdX-XpX-XdXfXsXsXfXsX;XdX-XcX+.` vXvXvXvX",
"vXvXvXvXvXvXvXvXxX2XkXrXiXu t.qX X X~.`.0.;XG.G.gX;XsX&XsX-XsX-XsXuXfX&X-XfXsXsXsX/.sX-XuX&XsX&XuXdX%Xd N.vXvXvXvX",
"vXvXvXvXvXvXvXvXqX0.0XxX| M 9X.X.X&X.X-XfX0XsXgXsXsXfXpXsXfX/.uXsX-XsXsX-X*XuX-XfX-XsXsXsXsXsXfX-XcX+.) vXvXvXvXvX",
"vXvXvXvXvXvXvXvXvXD.I.&Xx g.8XoXOXoX_.!.fXsXuXuXpXuXsXfX8XfXsXsXuXdX;XsXfXsX-XuXuX0XuX-X-XgXsXsXfX Xx V.vXvXvXvXvX",
"vXvXvXvXvXvXvXvXvXcXxX/ T dX}..X&X@X6.Y.fXsXuXuXfXuXsX-XsX-XsXsXpXsXuXsXuXpX-XsXsXsXfXsXuXdX;X&XcXO.( vXvXvXvXvXvX",
"vXvXvXvXvXvXvXvXvXvX$Xi d.-XoX|..XE.0.fXfX-XdX-XsXsXuX-XdX-X-XsXsXsXsXsXfXfXsX-XsX-XsX-XdX;X-XdX@Xk N.vXvXvXvXvXvX",
"vXvXvXvXvXvXvXvXvXvXF +.9.D.-X}. XOX.X;XsXuXsXuXuXsXfXsXuXsX&XuXsXsXsXuXfXsX-XfXpXsX&XfXsXfXOXcXO.Q vXvXvXvXvXvXvX",
"vXvXvXvXvXvXvXvXvXk.m ;X Xf..X}.!.-XgX;XdX-X-XuXuXsXuXsX&XfXsXfXuXuX-XuXuXsX&XdXdXfX-XuXuX-XiX%Xa V.vXvXvXvXvXvXvX",
"vXvXvXvXvXvXvXvXxXC t.xXsXsX-X}.6.oXfX-XuXsXfXfXsX-XpXfX0XgX-XfX-XsXsXsXsXfXsX-XfX-XsXsXuX-XcX .R vXvXvXvXvXvXvXvX",
"vXvXvXvXvXvXvXvXr.v fXfXuXpXXX7.P.fXpXsXuX-XuXuX-XsXsXfXsX-XuX&X0XuXuX;XuX-XiXsXsXuXuX-X-XgX[.a N.vXvXvXvXvXvXvXvX",
"vXvXvXvXvXvXvX-Xa b.cX;X-XpXfXY.oXqXuXsXsX;XsX-XsX&XsX-XuXfXsX-XuXfX;X0XuXfX-X;XuXsXsXfXsXxX| W vXvXvXvXvXvXvXvXvX",
"vXvXvXvXvXvXvX+.Q cX-XuXsXsX-X0XfXsXsXuXuXsXdXfXsXuXfX-X0X0XfXfXuXsXsXsXsXsX-XuXsX-XsX&XfX[.a n.vXvXvXvXvXvXvXvXvX",
"vXvXvXvXvXvX[.p ].dXsXsXsXfX0XuX-XpXsX-XgX;XdX&XsXfXuX-X-XuX*XsX-XuXsXsX4XsXsXsXsXpXsX-XvX+.U vXvXvXvXvXvXvXvXvXvX",
"vXvXvXvXvXvX( [ cX%XuXsXuX&X-X-XdX-XsX-XsXuX-XfX-XsXfXdX4XsXsXsXuXfXfXsX;XsXpXsX-XpXsXdX%Xl ].vXvXvXvXvXvXvXvXvXvX",
"vXvXvXvXvXz.C -XxXfXcXzXdXcXgXdXuX-XfXuXsXsX-XaX.XsXsXsXuX-XsXuXuXsXsX-XsXsXuX-XsX-X-XvXX.U vXvXvXvXvXvXvXvXvXvXvX",
"vXvXvXvXxXB X.i.X.) U P @.w.k.].dXkXfXuXsXsXsX&X-XsXuXuXfXsXpXsX-XsXuXsXuX&XfX-X-XsXuXoXv ].vXvXvXvXvXvXvXvXvXvXvX",
"vXvXvXvXp.g j A ] &.y.&.} ( C A P e.oXcXgX&X-X;XsXdX-XsXuXsXfX-XsXfX-XsX-XsXsXuXdXOXlX$.~ vXxXvXvXvXvXvXvXvXvXvXvX",
"vXvXvXfXv B N.dXcXxXvXcXcXaX-XN.%.E V { Z.cXfXdXOX&XfXsX&XsXsX0XuXsXuXfXsXpX&X-X-XgXoXv V.vXvXvXvXvXvXvXvXvXvXvXvX",
"vXvXvXO.V pXgX;XsX&X-X-XsXdXuXdXgXdXb.{ f ( ].dXsX;X-X-XdX-XuXsXsXsXfX&XsXOXsXsX=XlX@.L vXvXvXvXvXvXvXvXvXvXvXvXvX",
"vXvXdXC b.cX-XsXsXuX-XpXsXsX-XuX-XfXuXvX$XO.p / &XcX-X-XfX-XuXuXsXuX-XsXfXsXfXfXiX@Xv N.vXvXvXvXvXvXvXvXvXvXvXvXvX",
"vXvX].N fXsX-XuXuXuXsXfX-XsXsX-XuX;XsX-XzXgXN.G d v.kXfX*XfXsXsX-XiXsXuXpX-XpX-XcX#.Q vXvXvXvXvXvXvXvXvXvXvXvXvXvX",
"vXvX`.b pXfXsXsX-XfXuXuX0XiXfXsX&XfXiX&XsX-XdXvXt.k  .uXdX-XsXfXfX0XfXsXuXdX-XqX:XC ).vXvXvXvXvXvXvXvXvXvXvXvXvXvX",
"vXvX[.C oXuXsXsXsXsX&XsXgX-XsX-XsXfX-XsXfXuX-X-XcX'.N N [.iXOXuXpXfX=XsX-XsX-XcX@.! vXvXvXvXvXvXvXvXvXvXvXvXvXvXvX",
"vXvXgXD v.cX=XsXsXuX-XsX-X-XfX4XsXuX-X0XsXuXsXsXsXgXfX] C [.dXsXfXsXsXsXuXfX-X&Xx n.vXvXvXvXvXvXvXvXvXvXvXvXvXvXvX",
"vXvXvXO.Q cXsXpX-XsXfXdXuXuX-XsXsXuXfX/.dX-XsXuXsX-XsXcX..f V.gX=XpXuXsXuX;XcX@.Q vXvXvXvXvXvXvXvXvXvXvXvXvXvXvXvX",
"vXvXvX@Xp M.cX-X-XsXfXuX-XsX-XuXfXfX-XfX-XsXuXsX;XfX&XdXvX&.a '.aXsXsX;XsXgX@Xh N.vXvXvXvXvXvXvXvXvXvXvXvXvXvXvXvX",
"vXvXvXvX^ R gXuX-XuXuXsXfX-XdX&XsXsXsXsXuXpXsXsXfXfXuX-X-XcXO.M fXsXOXsX.XlX[ Q vXvXvXvXvXvXvXvXvXvXvXvXvXvXvXvXvX",
"vXvXvXvXfXv t.xX=XfXsXsXsXuX-X-XsXuXsX-XsXsX-X4XfXsXsXuX*XsXgXD [ cX;XuXfX%Xd m.vXvXvXvXvXvXvXvXvXvXvXvXvXvXvXvXvX",
"vXvXvXvXvXc.h M.cX-X-XuX-XdX-XfXuX-XfXuXpXsXfXsXsX4X-XdXsX&XfXoXa x.dX-XcX#.D vXvXvXvXvXvXvXvXvXvXvXvXvXvXvXvXvXvX",
"vXvXvXvXvXvXy.i '.dX-XuX-X;XsX&XuXsXsXsXsXuXuXsX0XfX-X-X-XuXsXcXo.N sXdX[.f m.vXvXvXvXvXvXvXvXvXvXvXvXvXvXvXvXvXvX",
"vXvXvXvXvXvXvX^ i %XcXfXsXuX-XfXsXuX-X-XsX-XsX-XuX-XfX-XfX-X&XuXfXA s.vX+.P vXxXvXvXvXvXvXvXvXvXvXvXvXvXvXvXvXvXvX",
"vXvXvXvXvXvXvXvX%.h ).cXsXuXsXsXsXsXsXsXuXfXsXsXuXuXsX&XfXsXsX-XvX| { &Xa n.vXvXvXvXvXvXvXvXvXvXvXvXvXvXvXvXvXvXvX",
"vXvXvXvXvXvXvXvXvXt.y a.cXfXsXuXuX;XuX0XsXuXpXsX-XsXfX-X-XuXsXsXgXM.A ' F vXvXvXvXvXvXvXvXvXvXvXvXvXvXvXvXvXvXvXvX",
"vXvXvXvXvXvXvXvXvXvXv.k ] .XgX-XsXsX*XsXfXsXsXsXsX&XfXsXsXfXsXsXfX:XN z `.vXvXvXvXvXvXvXvXvXvXvXvXvXvXvXvXvXvXvXvX",
"vXvXvXvXvXvXvXvXvXvXvX%X( C k.kXgXOXsXuX&X-XfXuXuXsX-XsX&XuXsXuXuX-Xb ) vXvXvXvXvXvXvXvXvXvXvXvXvXvXvXvXvXvXvXvXvX",
"vXvXvXvXvXvXvXvXvXvXvXvXvXy.k ! ].cXfXdXuXsX*XsXsXdX*XfXuXfXsX-XfX[.y M.vXvXvXvXvXvXvXvXvXvXvXvXvXvXvXvXvXvXvXvXvX",
"vXvXvXvXvXvXvXvXvXvXvXvXvXvX*XO.p ~ m.dXxXfX&X-X-XsX&XsXsX-X&XfXvXI G vXvXvXvXvXvXvXvXvXvXvXvXvXvXvXvXvXvXvXvXvXvX",
"vXvXvXvXvXvXvXvXvXvXvXvXvXvXvXvXB.[ k P w.oXgXxXgXfXdX-XiXdXcXcXw.h $XvXvXvXvXvXvXvXvXvXvXvXvXvXvXvXvXvXvXvXvXvXvX",
"vXvXvXvXvXvXvXvXvXvXvXvXvXvXvXvXvXvX#X&.( b R o.j._.@XaXoXm.t.W d B.vXvXvXvXvXvXvXvXvXvXvXvXvXvXvXvXvXvXvXvXvXvXvX",
"vXvXvXvXvXvXvXvXvXvXvXvXvXvXvXvXvXvXvXvXcX#Xy.) F G b A N N G &.-XvXvXvXvXvXvXvXvXvXvXvXvXvXvXvXvXvXvXvXvXvXvXvXvX",
"vXvXvXvXvXvXvXvXvXvXvXvXvXvXvXvXvXvXvXvXvXvXvXvXvX=XM.b.].sXvXvXvXvXvXvXvXvXvXvXvXvXvXvXvXvXvXvXvXvXvXvXvXvXvXvXvX",
"vXvXvXvXvXvXvXvXvXvXvXvXvXvXvXvXvXvXvXvXvXvXvXcXvXvXvXvXvXvXvXvXvXvXvXvXvXvXvXvXvXvXvXvXvXvXvXvXvXvXvXvXvXvXvXvXvX"
};
