/* XPM */
static char *Free_Converter_com_rsz_projection_51644641[] = {
/* columns rows colors chars-per-pixel */
"68 76 256 2 ",
"   c #4ABC2D",
".  c #5CA83B",
"X  c #4DB837",
"o  c #58B537",
"O  c #5FB82C",
"+  c #64AC3A",
"@  c #64B73A",
"#  c #6DB532",
"$  c #54C339",
"%  c #46C83C",
"&  c #66C33D",
"*  c #3FBE6F",
"=  c #468E4F",
"-  c #58AB45",
";  c #4BB645",
":  c #5AB748",
">  c #5ABB54",
",  c #65B24A",
"<  c #66BA48",
"1  c #6AB353",
"2  c #79B96B",
"3  c #6DBF61",
"4  c #53C24D",
"5  c #52C450",
"6  c #64C245",
"7  c #68C157",
"8  c #74C85B",
"9  c #7AC76A",
"0  c #71CA6E",
"q  c #7FE077",
"w  c #8CBD75",
"e  c #80C158",
"r  c #8CCA73",
"t  c #1975CF",
"y  c #72C789",
"u  c #0493DA",
"i  c #09AADB",
"p  c #18B9DB",
"a  c #0FAEDE",
"s  c #28B6DE",
"d  c #38BADE",
"f  c #31AFCF",
"g  c #109BEB",
"h  c #02A3E1",
"j  c #04ACE4",
"k  c #0CABE4",
"l  c #00A2ED",
"z  c #0CABEA",
"x  c #08A6E6",
"c  c #1AACEC",
"v  c #15ABE7",
"b  c #0CB3EC",
"n  c #13B5EB",
"m  c #1BB3EC",
"M  c #18B8E7",
"N  c #01A4F3",
"B  c #0AA4F4",
"V  c #02AAF4",
"C  c #0CABF5",
"Z  c #02A4FC",
"A  c #13AAF3",
"S  c #1BAEF3",
"D  c #14A9F7",
"F  c #07B5F2",
"G  c #17B5F7",
"H  c #24AAEE",
"J  c #25B5E5",
"K  c #23B4EB",
"L  c #23BBEC",
"P  c #29B7E8",
"I  c #32B6ED",
"U  c #36BAEB",
"Y  c #31A9F4",
"T  c #26B6F7",
"R  c #3AB6F3",
"E  c #38B8F7",
"W  c #20ABF2",
"Q  c #7FAED0",
"!  c #4CBFE3",
"~  c #43BCF2",
"^  c #46B8F5",
"/  c #59BDF7",
"(  c #5DBEEE",
")  c #64BDFF",
"_  c #27C7E5",
"`  c #35C3EA",
"'  c #39C4F9",
"]  c #36CAF7",
"[  c #66CAC4",
"{  c #46C6E8",
"}  c #5AC9EA",
"|  c #59D3E7",
" . c #47C4F8",
".. c #53C4F4",
"X. c #5DCCF5",
"o. c #5DCCFB",
"O. c #56C8FA",
"+. c #49D8EB",
"@. c #6AC7E8",
"#. c #74CBEB",
"$. c #69D8E9",
"%. c #73D4EE",
"&. c #77DAEB",
"*. c #65C5F3",
"=. c #68C7F9",
"-. c #73CCF9",
";. c #6BD4F7",
":. c #7ED5FB",
">. c #73DAFB",
",. c #7DDBFB",
"<. c #77D7F6",
"1. c #7CE0E8",
"2. c #A6908D",
"3. c #92BE8A",
"4. c #B8A7B7",
"5. c #9ACC8C",
"6. c #89D683",
"7. c #96D791",
"8. c #9EC297",
"9. c #A4EC93",
"0. c #99DAB6",
"q. c #95DAA9",
"w. c #B8DCA2",
"e. c #A5D4A3",
"r. c #B6E4B2",
"t. c #C3DBBA",
"y. c #C2E0BC",
"u. c #918ECB",
"i. c #8AB2D4",
"p. c #B3E6C8",
"a. c #8ADBE8",
"s. c #99DBE7",
"d. c #87CBF8",
"f. c #84D4FC",
"g. c #8AD9F8",
"h. c #99DCF3",
"j. c #93DDFB",
"k. c #9ADDFD",
"l. c #95D5F8",
"z. c #8DC8EA",
"x. c #ACDCF3",
"c. c #A2DDFD",
"v. c #A8D7F7",
"b. c #B5DBF7",
"n. c #AADCE4",
"m. c #8BE1EB",
"M. c #8AE3F7",
"N. c #98E6F8",
"B. c #99E5EC",
"V. c #AAE8EB",
"C. c #B1E9E8",
"Z. c #B9E8ED",
"A. c #A3EBF2",
"S. c #ADE3FD",
"D. c #A3EBFB",
"F. c #A9E6F7",
"G. c #B3E5FD",
"H. c #B4EAFF",
"J. c #BDEDFE",
"K. c #B9E8F6",
"L. c #BDF3FD",
"P. c #B6F7FF",
"I. c #B5F5E6",
"U. c #CBCAD0",
"Y. c #CBF1CA",
"T. c #C8E9D7",
"R. c #D1EDD5",
"E. c #D7F3DA",
"W. c #CCEDCF",
"Q. c #C2DDFD",
"!. c #DBD9F5",
"~. c #E2DCEB",
"^. c #CAEAE9",
"/. c #DCECE4",
"(. c #D4EEEE",
"). c #DAEBEA",
"_. c #CAF5E8",
"`. c #D4F4E4",
"'. c #DBF2E5",
"]. c #D3F3ED",
"[. c #DCF2EB",
"{. c #D5FCEC",
"}. c #DAFDE8",
"|. c #C2E3FD",
" X c #C2EDFE",
".X c #CDECFF",
"XX c #C9E8F6",
"oX c #D5EEF5",
"OX c #D9EDF5",
"+X c #D2E6FF",
"@X c #DAE6FE",
"#X c #D4EDFE",
"$X c #DCEDFE",
"%X c #C4F2FE",
"&X c #CDF3FE",
"*X c #CDFBFE",
"=X c #CBF6F3",
"-X c #D4F5F3",
";X c #DCF4F4",
":X c #D1FAF4",
">X c #DCFBF6",
",X c #D3F4FE",
"<X c #DCF4FE",
"1X c #D4FCFE",
"2X c #DCFCFE",
"3X c #E3EEE5",
"4X c #E9E5EE",
"5X c #E4ECED",
"6X c #EAEFEA",
"7X c #E8E9E6",
"8X c #F4EFE9",
"9X c #E4F4E5",
"0X c #EBF6E5",
"qX c #E6FDE3",
"wX c #EBFCE4",
"eX c #E5F3EC",
"rX c #EAF5EC",
"tX c #E4FDEB",
"yX c #EBFAEC",
"uX c #F2FDEC",
"iX c #F7F8E8",
"pX c #E6E4F2",
"aX c #E3EDF4",
"sX c #ECEDF4",
"dX c #E5E6FE",
"fX c #EAE6FE",
"gX c #E4EDFF",
"hX c #EBEDFE",
"jX c #E8E6F0",
"kX c #F2EDFE",
"lX c #E4F4F3",
"zX c #EBF4F3",
"xX c #E4FCF4",
"cX c #EBFDF4",
"vX c #E4F4FE",
"bX c #EAF4FE",
"nX c #E4FCFE",
"mX c #EBFCFE",
"MX c #F2FBF4",
"NX c #F2F4FE",
"BX c #FBF5FE",
"VX c #F3FCFE",
"CX c gray100",
"ZX c #F6F8F5",
"AX c black",
"SX c black",
"DX c black",
"FX c black",
"GX c black",
"HX c black",
"JX c black",
"KX c black",
"LX c black",
"PX c black",
"IX c black",
"UX c black",
/* pixels */
"CXCXCXCXCXCXCXCXCXCXCXCXCXCXCXCXCXCXCXCXCXCXCXCXCXCXCXCXCXCXCXCXCXCXCXVXCXCXCXCXCXCXCXCXCXCXCXCXCXCXCXCXCXCXCXCXCXCXCXCXCXCXCXCXCXCXCXCX",
"CXCXCXCXCXCXCXCXCXCXCXCXCXCXCXCXCXCXCXCXCXCXCXCXCXCXCXCXCXCXCXCXCXCXCXCXCX#Xc.N.j.j.N.J.vXCXCXCXCXCXVXCXCXCXCXCXCXCXCXCXCXCXCXCXCXCXCXCX",
"CXCXCXCXCXCXCXCXCXCXCXCXCXCXCXCXCXCXCXCXCXCXCXCXCXCXCXCXCXCXCXVXCXCXH.^ U m m P ^ _ L v T ' / N.NXCXCXCXVXCXCXCXCXCXCXCXCXCXCXCXCXCXCXCX",
"CXCXCXCXCXCXCXCXCXCXCXCXCXCXCXCXCXCXCXCXCXCXCXCXCXCXCXCXCXCXCXCX1XR S { N.L.nXVX1XBX<X2XH.f.] _ z ^ H.mXCXCXCXCXCXCXCXCXCXCXCXCXCXCXCXCX",
"CXCXCXCXCXCXCXCXCXCXCXCXCXCXCXCXCXCXCXCXCXCXCXCXCXCXCXCXCXCXCX:Xb { %XCX<XVXbX2XvX,XVX2XbXbXBXgXD.| Z L k.VXCXCXCXCXCXCXCXCXCXCXCXCXCXCX",
"CXCXCXCXCXCXCXCXCXCXCXCXCXCXCXCXCXCXCXCXCXCXCXCXCXCXCXCXCXCXCXE ..mXbXvX$XbX&XbXfX<XfXnXnX<X2XvXNXCX1Xd.C J |.CXCXCXCXCXCXCXCXCXCXCXCXCX",
"CXCXCXCXCXCXCXCXCXCXCXCXCXCXCXCXCXCXCXCXCXCXCXCXCXCXCXCXCXCXH.b L.hXvX<XhXbXvXsX2XbXnXvX].rX2XgXvX,XnXnXnXX.C =.mXCXVXCXCXCXCXCXCXCXCXCX",
"CXCXCXCXCXCXCXCXCXCXCXCXCXCXCXCXCXCXCXCXCXCXCXCXCXCXCXCXVXVXv =.CX#XbX,XtX<XvX[.<XjX>X$XmXbXbX[.bX<X8X#XmXzXZ.m T <XCXCXCXCXCXCXCXCXCXCX",
"CXCXCXCXCXCXCXCXCXCXCXCXCXCXCXCXCXCXCXCXCXCXCXCXCXCXCXVXCXf.A %X6XOXbXbXaX2XmX<XVX:XvXvXmX&XmX;XgXxXxX<XbX&XVX*X~ n %XCXCXCXCXCXCXCXCXCX",
"CXCXCXCXCXCXCXCXCXCXCXCXCXCXCXCXCXCXCXCXCXCXCXCXCXCXCXCX2Xm %.x.1XgXnXvXvXmX<XbXgXvXbX<XnXgXvXbX&XBX%XbXvXvXgXvXBX@.N %XCXCXCXCXCXCXCXCX",
"CXCXCXCXCXCXCXCXCXCXCXCXCXCXCXCXCXCXCXCXCXCXCXCXCXCXCXCX..R mXm.J.vX<XvX,XhX,XmX1XbXvX@XcXlX<XbXhXvXbXnX<XtXvX<XbXmXo.j vXCXVXCXCXCXCXCX",
"CXCXCXCXCXCXCXCXCXCXCXCXCXCXCXCXCXCXCXCXCXCXCXCXCXCXCXL.N F.VXH.,XbXlX9XmXlX0XvXdX1XbXvXaXlX2XrXoXmX,XmX$XzXgX2XhX2XmX .H NXVXCXCXCXCXCX",
"CXCXCXCXCXCXCXCXCXCXCXCXCXCXCXCXCXCXCXCXCXCXCXCXCXCXVXR { bX&XbX1XkX,XbX@X2XfX*XmXeXaXmX#XbX<XhXvXxX9XvXhX<XbXlXnXgXvX<Xm =.CXCXCXCXCXCX",
"CXCXCXCXCXCXCXCXCXCXCXCXCXCXCXCXCXCXCXCXCXCXCXCXVXCXj.x $XvXvXvX<XZ.gX,XmXxXbXgXvXvXvX2XnX<X$X2XhX1XvX,XbX,XmX[.nXvX<XBXA.j L.CXCXCXCXCX",
"CXCXCXCXCXCXCXCXCXCXCXCXCXCXCXCXCXCXCXCXCXCXCXCXCXmXJ ;.VX<X0XsX&Xl.b.<X,XhX1XbX,XgXbXlX7XnXhX,XbX$XnXvXlX0XvXbXnXvXvXgXVX^ ' CXCXCXCXCX",
"CXCXCXCXCXCXCXCXCXCXCXCXCXCXCXCXCXCXCXCXCXCXCXCXCX<.z vX,XbX<XbXmX2Xs. XbXqXnXfXqX<XmX2XvXnXnXzX2XbXnXmX#XvXvX,XmX^.MX<XmXJ.a D.CXVXCXCX",
"CXCXCXCXCXCXCXCXCXCXCXCXCXCXCXCXCXCXCXCXCXCXCXCXmXN B.VXvXnX#XbX,XvX1XbXhX$XbX2XnX,XbX,XvXgX$XrX,XbXzX-XhXvXvXbXvXbXmX,XnXNX~ *.CXZXCXCX",
"CXCXCXCXCXCXCXCXCXCXCXCXCXCXCXCXCXCXCXCXCXCXCXCX{ E MX1XhXvXgXmX<XvXbXnX.XL.bXvXgXmX3XmXnXnXvXvXbX1XsX>X<XvXvX,XmX&XbXvXgXVXN.m nXCXCXCX",
"CXCXCXCXCXCXCXCXCXCXCXCXCXCXCXCXCXCXCXCXCXCXCX|.N H.bXvX`.bX2X'.mXvXxXbXS.l.C.bXgXfX&XVX&XzX#XxXgXbX<XmXgXvXnX9XgXvXbX-XyXvX1XF L.CXCXCX",
"CXCXCXCXCXCXCXCXCXCXCXCXCXCXCXCXCXCXCXCXCXCXVX`  .2XbXmXgXvXbXdXvX,X9XbXmXb.G.,XuX1XbX<XvX0XmXvXeXnX+XbX[.vXvX2XbX<XbXdXvXhXvXI l.CXCXCX",
"CXCXCXCXCXCXCXCXCXCXCXCXCXCXCXCXCXCXCXCXCXCXA.l 1XNXvX$X<XvX1XbXvX<XbX,XmXwX2XgX[. XNX<XbX,XbX&XlX2XbXnX[.vXvX2XbX'.>X2XvX,XzXI k.CXCXCX",
"CXCXCXCXCXCXCXCXCXCXCXCXCXCXCXCXCXCXCXCXCXVXA >.BX_.bX<XmXxX2XgXsXvXbXvXnX#XmXbXS.k.C.vXvX2XhXnXgXbXvXvX@XmXnXxXhXvXnXvXbX<XmX` l.CXCXCX",
"CXCXCXCXCXCXCXCXCXCXCXCXCXCXCXCXCXCXCXVXCX&.z bX<XvXvXbX;X4X2XgX}.sX,XvXnXbX,XbX<X1X%.l.bXrXvXgXvX2XzXoXmX1XdX`.bX#XmXzX-XNX*XI F.CXCXCX",
"CXCXCXCXCXCXCXCXCXCXCXCXCXCXCXCXCXCXCXCX$XN l.VXnX&XvXgX2XbXvXbX<XbX2XvXgXhX2XnXgXVX].<XnXeXQ.nXgX<XzXoXNX2XvXbXgXbXgXlX-XBXA.h $XCXVXCX",
"CXCXCXCXCXCXCXCXCXCXCXCXCXCXCXCXCXCXVXCXo.J mXnX$XvX0X-XnX<XzX<XbXgXvXvXqX1XhX'.<X<XhXnXfXL.k.s.Z.bX$XBXxX7XvX$XbX&XVX,XgX;XD X.CXCXCXCX",
"CXCXCXCXCXCXCXCXCXCXCXCXCXCXCXCXCXCXCXL.l K.BX].xXbXvXgXnX,XiX#XmX<X[.bX1XbXvXnXmX,XNX,XvXnX,XP.*XbX:Xb.|.<XvX2XMXsX2XvX<X%.C ^.CXVXCXCX",
"CXCXCXCXCXCXCXCXCXCXCXCXCXCXCXCXCXCXCXJ O.NXvX;XsX&XbXgXnXbXnXhXnXbXeXvXnXvXvXvXgXbX9XbXvX9X<XkX1XbXoXM.l.C.NX<XF.v.n.bXvXK O.CXCXCXCXCX",
"CXCXCXCXCXCXCXCXCXCXCXCXCXCXCXCXCXCXA.k I.VX*XbXnXvXbX2X/.vX#XNX*XhX1XvX2X;XbX,XNX*XaXbXvX2X<XhXgXbXnXnXvX2XbX<XG.H. XVXN.B ,XCXCXCXCXCX",
"CXCXCXCXCXCXCXCXCXCXCXCXCXCXCXCXCXbXz =.BX+XbXhX<XvXnXbXnXbXhXvX5XvXbXdXbX9XvXvX[.mX#XmXgXbXgX2XmX(.bX<X<XmX,XrXvXbX<X@Xd ..CXCXCXCXCXCX",
"CXCXCXCXCXCXCXCXCXCXCXVXCXCXCXCXCX#.G vXmXnXbX].lXvXgX#XbX&X0X1XcX;X2XbX1XNX1XvX[.nXbX1XnX,XNX#XbXeX&XBXgXmX<XyX<XvXnXv.j 1XCXVXCXCXCXCX",
"CXCXCXCXCXCXCXCXCXCXCXCXMXR.w.5.w * y w.t.T.fXmXmX$X0X>XbXvXvXvXvXvXlXeXgXnXgXvXvXgXvX3XbXvX9XnX2XhX2XvXxXvXvXnXgXvXoX] o.CXCXCXCXCXCXCX",
"CXCXCXCXCXCXCXCXCXCXCXw.w O , % , & < O o + 0 e.R.<XbXvX2XbXhX,XbXnX<XnX<XbX<XmX#XmX,XVX,XvX<XbX,XbXvX9X,XbX,XgXnXwXh.z .XCXCXCXCXCXCXCX",
"CXCXCXCXCXCXCXCXCXE.w   , $ - # 4 o , 4 o 1 o O 1 r T.2XNX&XsX2XvXgXgXnX<X0X<XhXnXbX@XmX<XbXgXbXwX-XvXvXbXnX0X;X$XNX_ -.CXVXCXCXCXCXCXCX",
"CXCXCXCXCXCXCXCXY., @ > 6 e 9.f [ Y.0.9 9 ; O 4 -   # 5.R.vXzXnXmX1XvXvXvXlXbX<XmX[.cXgXzX<X,XmX1XgXvXvX1XNX&XbXVXl.C 2XCXCXCXCXCXCXCXCX",
"CXCXCXCXCXZXCXR.o < 6 > r.CXc.B oX<XVXmXoXp.7.4 , 7 , ; < q.sXNX(.zX].bX<X<XvX,XbX,XbX1XyXxXvXbXvXvXvXbX5X<XbXgXZXJ >.CXCXCXCXCXCXCXCXCX",
"CXCXCXCXCXCXNX7 < o r wXCXnXG %.VXvX,XgXnXxXhXI.r < , > & . 1 R.2XbXeXnXbX,X9XmXgXmXvXvX+XbX+XnXnX<XbX&XuX,XvX<Xh.C 2XCXCXCXCXCXCXCXCXCX",
"CXCXCXCXCXCX7.6 + 6.CXVXCXf.a cXgXvXvXbXgX,XbXnXmXT.0   # 5 : 7 8.1XgXmX+XmXaX<X;XwX.XVX<XxXvX<XvX3XbX2XhXbXvXbXY $.CXCXCXCXCXCXCXCXCXCX",
"CXCXCXCXCXY.. o q CXCXCX<XN A.gXmX,XbX$XbXvXbXoXnXmX>Xe.> @ > @ : 5.9XhXbXnXbXnXdXvXvXbXbX'.NX,XbXbX@XbX2XvXVXs.n vXCXVXCXCXCXCXCXCXCXCX",
"CXCXCXCXCXY., = T.CXCXCX..` nXvXbX+XwX2XvX`.hX1XhXvXvXmXp.8 o < $ ; w T.<XhX,XVX1XnX<X'.bX2XnXbXvXbX2X6X2XvXgXG <.CXCXCXCXCXCXCXCXCXCXCX",
"CXCXCXCXCXiXt.u.~.!.CXK.i N.VX#XvXnXmX<XvXxXgXbX<XmXnX$XmX=Xr . 6 < - 9 lXlX}.gXnXgXbXgX<XmX$XbX*XbX#XlX<XkXg.p 2XCXCXCXCXCXCXCXCXCXCXCX",
"CXCXCXCXCXCXBXNXU.u.BXP o.BXvXvXrX&XbX,XbX<XvX,XNX<XgX,XvXfXnX6.X & ; 9 [.$XnX,XbX5X1XNX&XfX2XeXlXhXnXgXmX,XP >.CXCXCXCXCXCXCXCXCXCXCXCX",
"CXCXCXCXCXCXCXCX!.~.Q u ,X<XbXvXlXbXvXbXbX2X9XnXgX2XmXvXmX,XbXbXq.@ @ 2 {.vXnXbXlXzX2XbXmXvXnXdXbX,XvXvX9XB.A vXCXCXCXCXCXCXCXCXCXCXCXCX",
"CXCXCXCXCXCXCXCXCXBXt z.nX2XnXhX,XmX>X9XvXbXgXvXgXvX3X-XhX<XbX<XVX`._.{.bXvXnXgXmX.XbX,XgX9X,XbX1XxXnXvXcXY ;.CXVXCXCXCXCXCXCXCXCXCXCXCX",
"CXCXCXCXCXCXCXCXVX:.M <X2XpXzX<XvXvXgXvX*XhX1XbX2X$XmXvXnXzXvX,XhX2XbX<XbX#XnX<X<XnXbX5XmXvXbXvXhX'.vXbXj.n vXCXCXCXCXCXCXCXCXCXCXCXCXCX",
"CXCXCXCXCXCXCXCX$Xi g.BX2XcX;XbXvXvX1X<XvXgXyXeXvXhX1XkX,XjX:XkX*XmXbX,XbXnXrXzXvXbX,X6X1XbX,XvXnXvX2XNXv >.CXCXCXCXCXCXCXCXCXCXCXCXCXCX",
"CXCXCXCXCXCXVXCX .' VX-X&X@X1X@X<XwXzXCX,XbX:XbX2X'.<XbX<XnXmXvXnXfX<XfXmX,XaX$X2XbXvXbX2XhXxX'.bX2XkXj.p 2XCXCXCXCXCXCXCXCXCXCXCXCXCXCX",
"CXCXCXCXCXVXCXZ.j >.^ c c M W M W  .<.s.^.BXVXnXbXvXbXvXlXvX<XbX'.cX1XvXOXhXmXvXbX-XcX$XmX$XvX,XhX{.nXK >.CXCXCXCXCXCXCXCXCXCXCXCXCXCXCX",
"CXCXCXCXCXCXNX~ h I *.N.B.H.N.F.h.*. .A A  .z.<XnXVX&XvX[.bX<XbX,XbXvXvX}.$XvXgXbX-XzX<XeXlXvXbXvXiXv.A vXCXCXCXCXCXCXCXCXCXCXCXCXCXCXCX",
"CXCXCXCXCXCXM.l O.1XmXVXVXvXVXVXVXVXmX<XH.O.z m } Q.mXhXbX<XwXvXbX<XnXbXvXgXvX2X2XmXvXbXxXbXvXvXbX2XG <.CXCXCXCXCXCXCXCXCXCXCXCXCXCXCXCX",
"CXCXCXCXCXBXZ } CX2XhX,XbXvXvX<X@XnXgXbXnXVX,Xf.] a *.Z.VX+XmX+XbX$XxX;XbX<X9XzXdXbX&XNX&XbX,XvXmXd.n nXCXVXCXCXCXCXCXCXCXCXCXCXCXCXCXCX",
"CXCXCXCXCXa.S oXvX<XeXrX,XvX6X2XvXvX$XmX1XhXmXVXNXD.R g $.$XVXnXvXvXcX-XNX,XbX1XmX].rXvXvXvXhXlX;XK >.CXCXCXCXCXCXCXCXCXCXCXCXCXCXCXCXCX",
"CXCXCXVXCX+. .CX.XNX&XmXnXgXlXxXvX9XlXbX9XlXvXgX<XmXnXN.C c v.:XrX<X2XhXvXvXvXvXvX<XbX1XvXvX,XZXd.S nXCXCXCXCXCXCXCXCXCXCXCXCXCXCXCXCXCX",
"CXCXCXVXCX! } VXeXvXvXhXbX&XhX+XnXnX#XmX1XbX:XzXgXgXhXmXnXO.F =.OXgXhX#X2X'.bX2XmXvXgX2XrXlXgXbXK ,.CXCXCXCXCXCXCXCXCXCXCXCXCXCXCXCXCXCX",
"CXCXCXCXCX) { NX).2XbX1XwXbXnXbXvXdXvXgXnXvXzXlX1XsX].vXbXmXZ.A s oXVX,XbXgXvX<X/.vX$XnX,XbXbXh.C mXCXCXCXCXCXCXCXCXCXCXCXCXCXCXCXCXCXCX",
"CXCXCXVXCX:._ VXvXnXmX$XzX&XbX<XgXvX1XbX.XBX&XbX<XbX;XbXvXxXbX&X] B A.rX2X$XbXvX;XnXbXmX<XbX&Xv 1.CXCXCXCXCXCXCXCXCXCXCXCXCXCXCXCXCXCXCX",
"CXCXCXCXCX.XB F.hX2XbX<XbXvXnXqXvXhXvXvXlX2XbXbX2X<XbXvX=X6X$XVXnX} B A.VXlXvX,XNXvXvX/.mXmX=.n nXCXCXCXCXCXCXCXCXCXCXCXCXCXCXCXCXCXCXCX",
"CXCXCXCXCXCXR / VX).bX,X<XvXnX$XhX1X0X,XeX<XbX].sXgXvX2XnXnXbX,XbXVX-.B D.5XvXmX2XvX<X<XbX[.D &.CXCXCXCXCXCXCXCXCXCXCXCXCXCXCXCXCXCXCXCX",
"CXCXCXCXCXCX.Xl Z.ZX*XkX>X0XgX<XnXnXaXvXvXnXbX;XbXnXbXnXvXgXlXbXbX+XVX-.h F.2XfX>X9XnXvXBX*.G xXCXCXCXCXCXCXCXCXCXCXCXCXCXCXCXCXCXCXCXCX",
"CXCXCXCXCXCXVX .R vXgXgX<XhX*XsXbX<XhX<XbXvX<XnXgX,X0XOX2XmX`.bX<XhX2XcX=.j <X<XbX$XnX$XlXi f.CXVXCXCXCXCXCXCXCXCXCXCXCXCXCXCXCXCXCXCXCX",
"CXCXCXCXCXVXCXvXi ,.VXvX<XbXbX{.nX,XkX1XmX<XvXvX$XmXvXbXvXnXbXbX,XNX:X4XnXR R lXmX,XbXnX-.T mXCXCXCXCXCXCXCXCXCXCXCXCXCXCXCXCXCXCXCXCXCX",
"CXCXCXCXCXCXCXCXF.V s.NXvXvXvXnXvXvXnXbXvX0XvXnX0X#XbX<X<XmX,XvXbXgXbXvX2XoXN f.VXvXgX<Xb x.CXVXCXCXCXCXCXCXCXCXCXCXCXCXCXCXCXCXCXCXCXCX",
"CXCXCXCXCXCXCXZXCX:.V ^.>XvXvXvXvX9X:XmX&XNX*XbXnXvXvX<X7XvX,XlX9X1XmXvX2XVX&.x &XbXqX*.P VXCXCXCXCXCXCXCXCXCXCXCXCXCXCXCXCXCXCXCXCXCXCX",
"CXCXCXCXCXCXCXCXCXCX( c L.NXvX2XvXvXmXvXvX<XbXfX<X<XvX<XbXvXbXvXvXhX<XnX$XgX2Xm @.VX#Xc j.VXCXCXCXCXCXCXCXCXCXCXCXCXCXCXCXCXCXCXCXCXCXCX",
"CXCXCXCXCXCXCXCXCXCXCX/ A C.NX`.bX&XVX&XvX$XbX*XmXaX9XbX#XxX$X2XbX,XnXvX9XmXmX,.S BX=.K CXCXCXCXCXCXCXCXCXCXCXCXCXCXCXCXCXCXCXCXCXCXCXCX",
"CXCXCXCXCXCXCXCXCXCXCXVX,.F a.NXbXvXvX0XbXvX9XbXnXbX<XvXvX6XlXnXvX3XvXvXvX$XbX%Xp M.M l.CXVXCXCXCXCXCXCXCXCXCXCXCXCXCXCXCXCXCXCXCXCXCXCX",
"CXCXCXCXCXCXCXCXCXCXCXCXCXs.l / }.NX,XvXvX,XbX,XbXbX,X<XhX,XNX#XnXmX$XvX2XnXbXnXE J E mXCXCXCXCXCXCXCXCXCXCXCXCXCXCXCXCXCXCXCXCXCXCXCXCX",
"CXCXCXCXCXCXCXCXCXCXCXCXVXCX%X_ A c.xXmXvX$XmX$X<X<XbXvXmX2XbX2XgXvXgXnXdXmXvXmXX.h S.CXCXCXCXCXCXCXCXCXCXCXCXCXCXCXCXCXCXCXCXCXCXCXCXCX",
"CXCXCXCXCXCXCXCXCXCXCXCXCXCXCXCX*.C @.#XmXbX<X0X>XbX9XlXdXbX$XwX<XnX2XbX`.bX&XVXk ] VXCXCXCXCXCXCXCXCXCXCXCXCXCXCXCXCXCXCXCXCXCXCXCXCXCX",
"CXCXCXCXCXCXCXCXCXCXCXCXCXCXCXCXCX XK B *.5XvXbXbX,XgX2X2XvX#XVX,XbX7XvXvXvXbX_.N *.CXBXCXCXCXCXCXCXCXCXCXCXCXCXCXCXCXCXCXCXCXCXCXCXCXCX",
"CXCXCXCXCXCXCXCXCXCXCXCXCXCXCXCXVXCXzXA.p m =.L.VXbXbXmXlX[.bX1XfXvXcX*XfX,XCX .G zXCXCXCXCXCXCXCXCXCXCXCXCXCXCXCXCXCXCXCXCXCXCXCXCXCXCX",
"CXCXCXCXCXCXCXCXCXCXCXCXCXCXCXCXCXCXCXCXmXg.P c ~ N.Q.NXCX2XkXlXgXbXnXhXVX-X#.b G.CXCXCXCXCXCXCXCXCXCXCXCXCXCXCXCXCXCXCXCXCXCXCXCXCXCXCX",
"CXCXCXCXCXCXCXCXCXCXCXCXCXCXCXCXCXCXCXCXCXCXCXH.o.v A ! =.l.%X^.<X^.J.V.d.K G C.CXCXCXCXCXCXCXCXCXCXCXCXCXCXCXCXCXCXCXCXCXCXCXCXCXCXCXCX",
"CXCXCXCXCXCXCXCXCXCXCXCXCXCXCXCXCXCXCXCXCXCXCXCXCXnXG.;.R v K m P T J A d f.bXCXCXCXCXCXCXCXCXCXCXCXCXCXCXCXCXCXCXCXCXCXCXCXCXCXCXCXCXCX",
"CXCXCXCXCXCXCXCXCXCXCXCXBXCXCXCXCXCXCXCXCXCXCXVXCXCXCXCXCXCX,X*X.X.X*X2XCXCXCXVXCXCXCXCXCXCXCXCXCXCXCXCXCXCXCXCXCXCXCXCXCXCXCXCXCXCXCXCX",
"CXCXCXCXCXCXCXCXCXCXCXCXCXCXCXCXCXCXCXCXCXCXCXCXCXCXCXCXCXCXCXCXCXCXCXCXCXCXVXCXCXCXCXCXCXCXCXCXCXCXCXCXCXCXCXCXCXCXCXCXCXCXCXCXCXCXCXCX",
"CXCXCXCXCXCXCXCXCX8X2.4X4.U.CXCXCXCXCXCXCXCXCXCXCXCXCXCXCXCXCXCXCXCXCXCXCXCXCXCXCXCXCXCXCXCXCXCXCXCXCXCXCXCXCXCXCXCXCXCXCXCXCXCXCXCXCXCX"
};
