/* XPM */
static char *Free_Converter_com_rsz_coutour_17204641[] = {
/* columns rows colors chars-per-pixel */
"72 76 256 2 ",
"   c #DD007A",
".  c #E7006D",
"X  c #E80079",
"o  c #F5007B",
"O  c #3EB336",
"+  c #57B52C",
"@  c #5DA436",
"#  c #4AB63B",
"$  c #5AB737",
"%  c #47AB2A",
"&  c #60A937",
"*  c #63B73A",
"=  c #66A92E",
"-  c #5AC43E",
";  c #66C539",
":  c #58AB45",
">  c #4CBA47",
",  c #59BA48",
"<  c #49A943",
"1  c #64A844",
"2  c #66B648",
"3  c #66B752",
"4  c #75BB69",
"5  c #51C34C",
"6  c #69CC5A",
"7  c #74C45A",
"8  c #6CC651",
"9  c #74CA63",
"0  c #8DC873",
"q  c #97E17E",
"w  c #D40685",
"e  c #D21C94",
"r  c #E80287",
"t  c #F40085",
"y  c #F61886",
"u  c #EC0C97",
"i  c #FC0B92",
"p  c #E51B84",
"a  c #CC2B9F",
"s  c #E73696",
"d  c #E5288F",
"f  c #DC0EA0",
"g  c #CE23A7",
"h  c #E337A8",
"j  c #E934AA",
"k  c #AE59B3",
"l  c #DE4D9E",
"z  c #F555AB",
"x  c #EC4BB2",
"c  c #D76DB4",
"v  c #F36EB7",
"b  c #E87ABB",
"n  c #EA6DB6",
"m  c #CE54A7",
"M  c #EA75C6",
"N  c #05A4DD",
"B  c #14ABDA",
"V  c #18B0DC",
"C  c #28B7DE",
"Z  c #3ABADE",
"A  c #009EFB",
"S  c #129BF6",
"D  c #0AA4EA",
"F  c #0BACEC",
"G  c #05A6E8",
"H  c #15ABE8",
"J  c #0DB1E4",
"K  c #19B4E8",
"L  c #00A4F2",
"P  c #03AAF3",
"I  c #0BA9F5",
"U  c #16A9F4",
"Y  c #0DB5F7",
"T  c #13B5F1",
"R  c #1DB9F6",
"E  c #18B5F6",
"W  c #25ACE9",
"Q  c #21B3ED",
"!  c #29B7E8",
"~  c #35B6ED",
"^  c #37B9EA",
"/  c #25B4F2",
"(  c #2AB4FD",
")  c #2AB8F7",
"_  c #37BAF7",
"`  c #24A7F8",
"'  c #589EDE",
"]  c #47BDE9",
"[  c #46B9F5",
"{  c #51BDF7",
"}  c #53BAEA",
"|  c #65BAFD",
" . c #1AC2E5",
".. c #3CC6E9",
"X. c #2BC1F6",
"o. c #39C6F8",
"O. c #23C0E1",
"+. c #57C6E8",
"@. c #4BC7F9",
"#. c #5BC3F2",
"$. c #59C9F9",
"%. c #52D1F8",
"&. c #4DCEEF",
"*. c #68CAE7",
"=. c #78C9EA",
"-. c #64DAE6",
";. c #76D7E9",
":. c #68C8F8",
">. c #77CCF6",
",. c #6BD2F3",
"<. c #6AD7FB",
"1. c #7CDBFE",
"2. c #77D7F9",
"3. c #7AE2F9",
"4. c #E690BA",
"5. c #98CC85",
"6. c #98D788",
"7. c #9ACC98",
"8. c #99D591",
"9. c #87DE8E",
"0. c #ABDB99",
"q. c #ABD491",
"w. c #8BE292",
"e. c #BAE19E",
"r. c #AFD3A9",
"t. c #B9E5AC",
"y. c #B7E3B7",
"u. c #AAE7AC",
"i. c #C0DDBC",
"p. c #C5E4AF",
"a. c #D98BCB",
"s. c #EF92C7",
"d. c #D8B0D0",
"f. c #E7A4DB",
"g. c #F4BCDC",
"h. c #EBABD1",
"j. c #E5BDE4",
"k. c #FAB9EC",
"l. c #B8F6C1",
"z. c #85CDEB",
"x. c #8BD7E8",
"c. c #98D6EB",
"v. c #84C9F5",
"b. c #97CEFD",
"n. c #8AD9FA",
"m. c #97D8FA",
"M. c #90CEE8",
"N. c #A2D6E5",
"B. c #A4DAF9",
"V. c #B7DCFD",
"C. c #BEDFEB",
"Z. c #89E2EE",
"A. c #8BE4FC",
"S. c #83E2F4",
"D. c #98E5F9",
"F. c #9AE2ED",
"G. c #B5E5E8",
"H. c #A0E2FF",
"J. c #ACE4FD",
"K. c #A6E9F9",
"L. c #B4EDF5",
"P. c #BCE1FE",
"I. c #B3EDFE",
"U. c #B9E7F7",
"Y. c #A6F4FC",
"T. c #B7F5FF",
"R. c #A4EFE5",
"E. c #DEC7DB",
"W. c #E4DBDF",
"Q. c #C9EACB",
"!. c #D8EDD8",
"~. c #D8F6D5",
"^. c #D1EECE",
"/. c #E3F4D5",
"(. c #D9D4E7",
"). c #E2D3EC",
"_. c #F9D3E7",
"`. c #EED3F1",
"'. c #CBE9E9",
"]. c #DCEEED",
"[. c #D6EAE4",
"{. c #CFFDE9",
"}. c #D2F3E4",
"|. c #DDF3E5",
" X c #DDFDE6",
".X c #D4F4EC",
"XX c #DDF3EA",
"oX c #DCFBEB",
"OX c #D4FBE9",
"+X c #CDEDFE",
"@X c #C6E8F8",
"#X c #DCEAF3",
"$X c #D3E6FF",
"%X c #D4ECFD",
"&X c #DCECFE",
"*X c #D7EAF5",
"=X c #CEF4FE",
"-X c #CEFDFF",
";X c #C7F5F6",
":X c #D4F4F3",
">X c #DCF3F4",
",X c #D3F9F2",
"<X c #DDFDF3",
"1X c #D4F4FF",
"2X c #DCF4FE",
"3X c #D4FCFE",
"4X c #DCFCFE",
"5X c #E4EDE5",
"6X c #EAEEEB",
"7X c #E7E8E9",
"8X c #E3F3E5",
"9X c #EAF5E5",
"0X c #E4FCE3",
"qX c #ECFBE5",
"wX c #E5F4EB",
"eX c #EAF3EB",
"rX c #E4FDEB",
"tX c #EAFDEA",
"yX c #F6F6EA",
"uX c #E4EBF5",
"iX c #EBEDF4",
"pX c #E5E6FE",
"aX c #EAE6FF",
"sX c #E4EDFE",
"dX c #EBECFE",
"fX c #E6E6F4",
"gX c #F2EDFD",
"hX c #F7EEFB",
"jX c #E4F4F4",
"kX c #EBF4F4",
"lX c #E4FCF4",
"zX c #EBFAF4",
"xX c #E4F4FE",
"cX c #EAF4FE",
"vX c #E5FCFE",
"bX c #EBFCFE",
"nX c #F5FDF4",
"mX c #F3F5FE",
"MX c #FAF6FD",
"NX c #F3FCFE",
"BX c gray100",
"VX c #FBF8F6",
"CX c black",
"ZX c black",
"AX c black",
"SX c black",
"DX c black",
"FX c black",
"GX c black",
"HX c black",
"JX c black",
"KX c black",
"LX c black",
"PX c black",
"IX c black",
"UX c black",
/* pixels */
"BXBXBXBXBXBXBXBXBXBXBXBXBXBXBXBXBXBXBXBXBXBXBXBXBXBXBXBXBXBXBXBXBXBXBXBXBXBXBXBXBXBXNXBXBXBXBXBXNXBXBXBXBXBXBX0XnXBXBXBXBXBXBXBXBXBXBXBXBXBXBXBX",
"BXBXBXBXBXBXBXBXBXBXBXBXBXBXBXBXBXBXBXBXBXBXBXBXBXBXBXBXBXBXBXBXBXBXBXBXBXBXBXBXBXBXBXmXNXNXmXBXBXBXBXBXBXBXBXBXBXBXBXBXBXBXBXBXBXBXBXBXBXBXBXBX",
"BXBXBXBXBXBXBXBXBXBXBXBXBXBXBXBXBXBXBXBXBXBXBXBXBXBXBXBXBXBXBXBXBXBXBXBXBXBXBX=X1.o.X.~ ( ^ ( o._ <.m.4XBXBXBXBXBXBXBXBXBXBXBXBXBXBXBXBXBXBXBXBX",
"BXBXBXBXBXBXBXBXBXBXBXBXBXBXBXBXBXBXBXBXBXBXBXBXBXBXBXBXBXBXBXBXBXBXBXBXBX3X@.T ! -.n.m.I.D.I.n.-...) J ` n.1XMXBXNXBXBXBXBXBXBXBXBXBXBXBXBXBXBX",
"BXBXBXBXBXBXBXBXBXBXBXBXBXBXBXBXBXBXBXBXBXBXBXBXBXBXBXBXBXBXBXBXBXBXBXBXL.D @.U.cXMXmXcXbXxXxXcXcXNXxXI.Z.E I #.I.MXBXBXBXBXBXBXBXBXBXBXBXBXBXBX",
"BXBXBXBXBXBXBXBXBXBXBXBXBXBXBXBXBXBXBXBXBXBXBXBXBXBXBXBXBXBXBXBXBXBXBXsXT :.bXcX1XxX4XxX&X8XxXvXvXsXsXNXNXmXY.o.G @.2XBXBXBXBXBXBXBXBXBXBXBXBXBX",
"BXBXBXBXBXBXBXBXBXBXBXBXBXBXBXBXBXBXBXBXBXBXBXBXBXVXBXBXBXBXBXBXBXBXBX%.K xXvX2XxX2XsXjX4XcX=XcX%XvX2XxX+XcXvXMXT._ D n.BXBXBXBXBXBXBXBXBXBXBXBX",
"BXBXBXBXBXBXBXBXBXBXBXBXBXBXBXBXBXBXBXBXBXBXBXBXQ.7 /.MXBXBXBXBXBXBXV.D L.bXvX1XcX4X#XrX2XxXcXxXwXxXxXOXvXxX.XpXbXNXn.D $.vXBXBXBXBXBXBXBXBXBXBX",
"BXBXBXBXBXBXBXBXBXBXBXBXBXBXBXBXBXBXBXBXBXBXBXBX7 % l.BXBXBXBXBXBXNX^ +.MX+XbX8XxXcX1XvXcXcX1XbX:XxXxXjXxXxX<XxX4X&XNX=X .( sXBXBXBXBXBXBXBXBXBX",
"BXBXBXBXBXBXBXBXBXBXBXBXBXBXBXBXBXBXBXBXBXBXBX~.& 3 !.BXBXBXBXBXBXK.P A.@XcXvXdX1XcXxXxX2XkXxXsXxXxX1XcX=XNX%XxXjXcX4XcXvX] L >XBXBXBXBXBXBXBXBX",
"BXBXBXBXBXBXBXBXBXBXBXBXBXBXBXBXBXBXBXBXBXBXBX7.+ 6.BXBXBXBXBXBXVX' x.J.K.XX2XvXxXxXXXxX2XXXxX4XvXxXcX2XxXxXvXxX|.xX1XcX2XvX%.U =XBXNXBXBXBXBXBX",
"BXBXBXBXBXBXBXBXBXBXBXBXBXBXBXBXBXBXBXBXBXBX~.2 # p.BXnXBXBXMXBX4.f j.-Xm.jX2XxXxX2XjXvXcX4XxX4XfXrXsX<X6X&XvXxXxX&XvX%XdXbX2X] _ NXBXBXBXBXBXBX",
"BXBXBXBXBXBXBXBXBXBXBXBXBXBXBXBXBXBXBXBXBXBX7.- 4 nXBXBXBXMXBX).u y uXvXvXcXbXkX1XcX2XvXvXpXcXxXxXvX-XiX4XvXiX;XNX2XsX0XxX&XcX3X! :.BXBXBXBXBXBX",
"BXBXBXBXBXBXBXBXBXBXBXBXBXBXBXBXBXBXBXBXBXwX2 * 7.BXnXBXBXBXBXc r s.vXdXcX'.4XeX1XcX1XxX4X4XwX:XsXbXxXcX1XcXlXwXcX1XxXxXcX1XcXxXY.F I.BXBXBXBXBX",
"BXBXBXBXBXBXBXBXBXBXBXBXBXBXBXBXBXBXBXBXBX0.$ 8 9XBXBXBXBXBXk.r s <XxX=XnXK.m.vX2XcX8XxXcX%XkXxXcX=XaX2XcXcX1XaXvXxXvX2X2XxXvXxXmX+...BXBXBXBXBX",
"BXBXBXBXBXBXBXBXBXBXBXBXBXBXBXBXBXBXBXBXzX6 @ 8.BXBXBXBXBXnXh t h.vXsXxXxX1XN.B.mX2X>XvX:XvXcX2X2XrXzX%XrX#XcX4XvXiX{.aXvX8X:XxXxX1XP m.BXBXBXBX",
"BXBXBXBXBXBXBXBXBXBXBXBXBXBXBXBXBXBXVXBX5.= 6 |.BXBXBXBXBXh.  z 4X&XvX&XxXcX1X+XvXvXaXvX8XbX3XcXxXxX2XcXxX1XcX1XbX2XcXxXxXxXcX1XxXmX*.@.NXBXBXBX",
"BXBXBXBXBXBXBXBXBXBXBXBXBXBXBXBXBXBXBX^.* # 5.BXVXBXBXBX7Xh i E.vXsXxXvX4XxX2XxXcX'.vXcXsXvX2XcXxXxX4XxXxXcXjX6X2XxXvX3XcX1XcXxXsX4X@XD %XBXnXBX",
"BXBXBXBXBXBXBXBXBXBXBXBXBXBXBXBXBXBXnX0 , 8 !.BXBXBXBXBXs.r v -XcX:XwXvXjXXXxXlX*Xv.V.vXvX&XxXcX}.cXvX*XxX3XvXxXxXxXsX|.cXxXcX5XxXvXvXK D.BXBXBX",
"BXBXBXBXBXBXBXBXBXBXBXBXBXBXBXBXBXBXi.% : u.BXBXBXBXBX`.e y 7XxXxXcXxXvXcX1XcXlXlX@Xc.I.cXrXxX2XxXxXpXrXxXdX1XcX2XvX4XxX1XxXxX-XxXvXNX#.:.BXBXBX",
"BXBXBXBXBXBXBXBXBXBXBXBXBXBXBXBXBX X2 8 6 nXBXBXBXBXBXc X s.-XdX2X1XxX1XaXcX2X2XxXvX,XxXaX,XaX3XdX3XcX1XxX2XxXxX8XxX2XcX2XxX2XxXsXvXMX,.@.BXBXBX",
"BXBXBXBXBXBXBXBXBXBXBXBXBXBXBXBXBX0 > & ^.BXBXBXBXBX_.  h jXvXbXbXxXkXvX3XvX2XcX=XcXcXcX=XB.@X4XbX<XdXvXbX|.2XxX,XcXcX4XkX|.cXvX6X,XcXA.C MXBXBX",
"BXBXBXBXBXBXBXBXBXBXBXBXBXBXVXBXe.$ $ w.MXBXBXBXBXNXm t f.vXpXvX1XcX.XfXvXxX6XsXcXcX1XxX4XU.c.b.#XwX4XcX1XxXvXpXcX1XxX%XcX1XcXvX1XxXcX;.@.nXBXBX",
"BXBXBXBXBXBXBXBXBXBXBXBXBXBXVX/.3 & 9 ~.BXBXBXVXBXh.r l bX2X<XwXvXcX4XcX1XcXoX2XxX1XjXrX&XvX4XR.=XsX1XaXxXxX4XxXcX#XrXcXvXcX1XbX2XcXkX) n.BXBXBX",
"BXBXBXBXBXBXBXBXBXBXBXBXBXBXnX4 > # y.BXBXBXBXBXgXs r E.vXvXxXsX&XdX2XxXxXxXvXcXxXvXxXiXxXxX%XzXsXcXJ.D.[.4XuXcX4X2XjXvX%XxX|.bXxXxXn.P 2XBXBXBX",
"BXBXBXBXBXBXBXBXBXBXBXBXBXMX5.* 2 6.BXBXBXBXVXBXa.r v vXxXvX4XcX3XgX,XdX:XkXvX2XwX<XbX1XxXvXxXcX2XcX3XD.n.bXoX.X*XxXcX1XdXbXcX2X1X'.P =.BXBXBXBX",
"BXBXBXBXBXBXBXBXBXBXBXBXBX0.< ; 4 0XBXBXBXBXBX_.u p W.xXxXxX&XvXdX:XjXsX<XjX&XxXxX2XvX2XsX XxXcX&XxX5XxXcX&X4Xm.b.L..XmX'.U.@X2XNX=.E 2XBXBXBXBX",
"BXBXBXBXBXBXBXBXBXBXBXBXy.$ ; 2 ^.BXBXBXBXBXBXc r M bX%XxXxXkX{.cXvXxXvXcX2XcX4XxXvXxXdXvXxXxX1XkXxXlXxXcXcXvX4X-XJ.cX2XK.B.D.sXNXQ +.BXBXBXBXBX",
"BXBXBXBXBXBXBXBXBXBXBXy.: - : y.BXBXBXBXMXBX(.r j jXvXvXcX&X2XxXdX2XcX1XcX%XcX>XwX4XuXrXxX2XxXcX.XcX2X2XxX2XcXxXxXNXxXvXcX4X4XVXM.P bXBXBXBXBXBX",
"BXBXBXBXBXBXBXBXMXBXp.& ; > 0.BXBXBXBXBXBXNXx o d.vX%X6XrXcXxXxXvX[.vX&X XcXxXxXjXcX3XjX2XxXxXxXxXxXvXcXeXjX2XvXcX1XaX}.dX1XxX1X@.<.BXBXBXBXBXBX",
"BXBXBXBXBXBXBXBXBXu.: ; 1 8.BXBXBXBXBXBXBXg.r z 2XcXvXxXvX%XcX1XbXuXxXcX4XxX1XcX-XaX2XvXbX*XvX&X2XcX3XcX;XcXsXbX[.cXxXvXcXxXzXJ.G >XBXBXBXBXBXBX",
"BXBXBXBXBXBXBXnX6.= 5 # 0 BXBXBXBXBXBXBXyXa o g.bX$XcX1XcXvXuXjX&X4XvX&XvXcXxXcXvXxX2XxX4XwXdXvXvXxXeXvXxXxX2XxXcX3XxXsX2XxXrX/ *.BXBXBXBXBXBXBX",
"BXBXBXBXMXBXiX4 > 2 * w.MXBXBXBXBXBXMXBXs.r v 3X4X2X9XxXxX2XjXjXxXxXcX1XdX}.zX1XrX>XxXxX&XcX=X9X%XvXXX4XcXxX2XxX4XpXvX4XxXmXD. .1XBXBXBXBXBXBXBX",
"BXBXBXVXBX^.9 $ 8 + 0.BXBXBXBXBXBXBXBX7Xe p ).vXsXcX>X2XvXvX1XxX3XxXrXzXxXxXxXxXvXaXlX8XvXvXvXcXsXsXvXxX2XcX#X8XvXvX5XjX2XeX/ :.BXBXBXBXBXBXBXBX",
"BXBXBXVXr.* 2 ; : u.nXBXBXBXBXBXBXBXBXM t M bXpXbXxXxXcXxXeXxXcXvXcX$XcX1XxXxX2XxX4X4XaX1XaX2XdX4XvX&XcX.XkX3XxXxXcX1XcXxXD.L vXBXBXBXBXBXBXBXBX",
"BXBX^.0 > 8 # 8 y.BXBXBXBXBXBXBXBXBX`.w d jX1XcX3XxX2X2XvX,XcX1X9X&XvX1XbXxXcX&XvXpXvXxXvXqX2XxX2XxX4XxXcXxXcXxX4X2XvXvX#X] ,.VXBXBXBXBXBXBXBXBX",
"BX!.8 $ 5 & 0 5XBXBXBXBXBXBXBXBXBXNXx . f.mX4XcXuXcX8XvXsXxXdX2XxXcXbX4XpXcX<X|.sXvX%XbX&X2XxXcXvXxX7XcXxX1XcX3XaX0XsX4XL.A &XBXBXBXBXBXBXBXBXBX",
"BXt.@ * $ 8.BXBXBXBXBXBXBXBXBXBXBXd.t x >X4XxX&XtX1XcX1XvXxX4XpX>X2XsX2X XcXxXxXvX1XcXwX2XcX1XdX}.xX2XvXxXxXvXxXxXxXcXbX! ,.BXNXBXBXBXBXBXBXBXBX",
"BX!.9.0 Q.nXBXBXBXBXBXBXBXBXBXBXbXj r j.vXxXxX1XbX1XcX2XvX|.vXxXcX2XxXsXbX1XcX2XxXpXzX:XcXvXcXvXcXxXvX-XcX|.>XxX1XcX2XN.U :XBXBXBXBXBXBXBXBXBXBX",
"BXBXNXNXBXBXBXBXBXBXBXBXBXBXMXMXs.. z vX%XcX1XcXvXcX1XcXsXlXdX=XcXlX8X1XbX1XcXxXxX4XvXvX&X<XsX1XdX1XcXvXxXjXvXvXjXxXcXR :.BXBXBXBXBXBXBXBXBXBXBX",
"BXBXBXBXBXBXBXBXBXBXBXBXBXBXBX7Xg i ).lXvXvXxX].2XcXcX.XxX2XsXvXaX2XxXxXaX1XvX8XxX1XaXcXxX9XsXcXcXxXsXrXxX2XxXcX|.vXc.G vXBXBXBXBXBXBXBXBXBXBXBX",
"BXBXBXBXBXBXBXBXBXBXBXBXBXBXBXn X M 3XxXOXaXxXrXcX1XcXwXxXxX>XrX4X2XxX4X|.cXsX2XxX4XqX=XcX-XvX2X|.xXxX,XcXxX-XvXcX2XQ *.BXBXBXBXBXBXBXBXBXBXBXBX",
"BXBXBXBXBXBXBXBXBXBXBXBXBXBX-Xk s uXbXxXxXxXvX%XbX&XxXbX=XcXxXsXsXcX2XvX<XxXxXvXvXxXpXvXdXxXsXsXlXxX3XcX2X9XxXsXcXm.L 2XBXBXBXBXBXBXBXBXBXBXBXBX",
"BXBXBXBXBXBXBXBXBXBXBXBXBXBX| [ NXbX2XxX2X2XvXcXxXjXvXxXjXzX1XvXvXkX:XcXvXxX%XcXjX2XbX2XcX>XzXxXxXxXsXcX1XdX4XvXcXB 2.BXBXBXBXBXBXBXBXBXBXBXBXBX",
"BXBXBXBXBXBXBXBXBXBXBXBXBXP.H G.4XiX}.xXxXpXlX1XkX:XvX2XkX:XcXxXxX:XjX1XcXxXbXjXwX2XdX3XbX:XjX&XvX1XbX2XxX2XvXmXz.E <XBXBXBXBXBXBXBXBXBXBXBXBXBX",
"BXBXBXBXBXBXBXBXBXBXBXBXnX~ @.NXmXvX4XxXvXyXxXcXxX2XbXxXcX2XxXlX4XxXvXxXuXeX+XcX=XcXlXeXxXcX4XcXcX4X9X1XxX2XcX&X) 1.BXBXBXBXBXBXBXBXBXBXBXBXBXBX",
"BXBXBXBXBXBXBXBXBXBXBXBXH.U K.x.%.{ o.#.2.>.D.@XeXMXvXjX1XxX>XwX1XcXxX2XbX2XvXxXxX2X4XxX1XcX1XzX%XvXxX2XxX5XbXM.F BXBXBXBXBXBXBXBXBXBXBXBXBXBXBX",
"BXBXBXBXBXBXBXBXBXBXBXvXK T I Q [ ,.;.$.#.! U S ^ ,.m.yXvXcXsXxXcXxXxX4XcX3XdX1XxXcXxXxXcXxXcXwX2XvX2XxXxXcX<XQ 1.BXBXBXBXBXBXBXBXBXBXBXBXBXBXBX",
"BXBXBXBXBXBXBXBXBXBXBX:.A @.G.vXcXbXdXbXcX4X4XY.3.X.K T =.1XMX4XzX}.cXvX8XxXvXvXtX<XcX+XqX%XxX4XxX4XdXxXxX2Xm.K lXBXBXBXBXBXBXBXBXBXBXBXBXBXBXBX",
"BXBXBXBXBXBXBXBXBXBX;XJ +.yXvXcX2XxXvXxXxXxXcXkXcXNX+X<.K D >.@XdXxXxX1XdX-XiX2XaX3XaXvXsXbXxX&XcX.XlX<XvXkXU x.BXBXBXBXBXBXBXBXBXBXBXBXBXBXBXBX",
"BXBXBXBXBXBXBXBXBXMX,.) xXcX1XcX1XwX&XxX2X9XxX7XxXxXxXNXcXZ.E B 3.&XcXsXvXdXeX4XxX2XxXxX1XcX%XeXxXcXsX2XcXx.( 4XBXBXBXBXBXBXBXBXBXBXBXBXBXBXBXBX",
"BXBXBXBXBXBXBXBXBXNX~ v.bX2XvXxXxXlXvXxXvX:XsX4X4XcX=XvX&XMXvXA.J T G.bXsXxX1XdXcX2XlX8XvXcX4XuXvXxXvXcX>X/ ;.BXBXBXBXBXBXBXBXBXBXBXBXBXBXBXBXBX",
"BXBXBXBXBXBXBXBXBXcXT U.vXxXcX1XxXxXvXxXxXsXbX$XcXsXxX7XvX1XvXNX+X@.D ,.:XmX2XvX2XcX2XcXxX].bX1XcX1XbXNXx.I vXBXBXBXBXBXBXBXBXBXBXBXBXBXBXBXBXBX",
"BXBXBXBXBXBXBXBXBXvXT J.kXrX4XjXwX2XxX.XzXxXvX4X>XwX4XXXcXxXcX1XbXbXI.H K I.MX5X1XcX1XbX2XwXxXcX2XwXdX*X~ 1.BXBXBXBXBXBXBXBXBXBXBXBXBXBXBXBXBXBX",
"BXBXBXBXBXBXBXBXBXNX^ 2.bX#XcX1XkXvXbX2X2X2XxXcX&XvXsXvXxX}.bXsXxXpXcX,X@.D G.<XxX4XdXxXxXcX3XcX1XxXzXA.V <XBXBXBXBXBXBXBXBXBXBXBXBXBXBXBXBXBXBX",
"BXBXBXBXBXBXBXBXBXBX>.) NX%XbXxX2XcX&XcXxXxXjX,XcXcX2XxXxXbXcX+XqX1XxXxXcX<.G B.mX1XqX=XcXxXxX>X2XaXbXU ;.BXBXBXBXBXBXBXBXBXBXBXBXBXBXBXBXBXBXBX",
"BXBXBXBXBXBXBXBXBXBXP.B @XbXsXdX1XeX4XcX1XxXjXlXcX1XxX2XxX1XbXxXxXcX1XcX%XNXz.P F.bXaXxX4X4XcXwX4XbXM.( 4XBXBXBXBXBXBXBXBXBXBXBXBXBXBXBXBXBXBXBX",
"BXBXBXBXBXBXBXBXBXBXBX) [ mX}.vXvXjXsXxX2XmX-XsXcX2XcXvXcXxX*XxX2X2X2X9XxXsXnXn.L B.4XvXpXxXxXxXcX2XC 2.BXBXBXBXBXBXBXBXBXBXBXBXBXBXBXBXBXBXBXBX",
"BXBXBXBXBXBXBXBXBXBXBXP.H Y.dX1XxX2X4XxXxXXXxX1XcXtX>XcX2XvX8XcXxXvXxX3XcX2XxXvXz.P L.dX9X3XxXlXmXm.H 4XBXBXBXBXBXBXBXBXBXBXBXBXBXBXBXBXBXBXBXBX",
"BXBXBXBXBXBXBXBXBXBXBXBX,.! xXcXxXxXcXxXvXXXxXcX1XxX%XcX1XbXcX1XcXxXxX4XbX1XsXvXnX+.W -XdX2XxX4X]./ x.BXBXBXBXBXBXBXBXBXBXBXBXBXBXBXBXBXBXBXBXBX",
"BXBXBXBXBXBXBXBXBXBXBXBXmX~ +.hX3XcX,XwXxXxXvX0XxXxXvXjXeX4X2X2XcX:XwXvXvXwXjXvXxX>XE ] xXcX-XgXB.Y vXBXBXBXBXBXBXBXBXBXBXBXBXBXBXBXBXBXBXBXBXBX",
"BXBXBXBXBXBXBXBXBXBXBXBXBXG.F v.lXaXbX=XcX1XcXxXxXxX2X&X2XcXxXjX2XsXxX1XcX-XcX1XxXvXI.D U.sXvXvXH 2.BXMXBXBXBXBXBXBXBXBXBXBXBXBXBXBXBXBXBXBXBXBX",
"BXBXBXBXBXBXBXBXBXBXBXBXBXBXY.L z.nXsXcXxXcX3XvX1XsXvXcX1XbXuXjX4XcXxXdXxXcXxXcXxXsXNX+._ lXyXb.Q 4XBXBXBXBXBXBXBXBXBXBXBXBXBXBXBXBXBXBXBXBXBXBX",
"BXBXBXBXBXBXBXBXBXBXBXBXBXMXBXD.G ,.NX1XxXcXsXcXsXvX[.bXxXvXdX3XdX<XcX3X9X=XcX1XrX>X4X@XH B.xX! ;.BXBXBXBXBXBXBXBXBXBXBXBXBXBXBXBXBXBXBXBXBXBXBX",
"BXBXBXBXBXBXBXBXBXBXBXBXBXBXBXBXH.D 2.zX XiX2XqX4XxXxXcX1XlX2XxXcX}.sXvX&XvXpXxXxX2XxXbX~ 1.B.I BXBXBXBXBXBXBXBXBXBXBXBXBXBXBXBXBXBXBXBXBXBXBXBX",
"BXBXBXBXBXBXBXBXBXBXBXBXBXBXBXBXBXV.Y [ &XbX1XcX%XxX1XcXxXXXxXxXxXbXxXcX2XvXoXxXxXxXxXNX*./ Z <.BXBXBXBXBXBXBXBXBXBXBXBXBXBXBXBXBXBXBXBXBXBXBXBX",
"BXBXBXBXBXBXBXBXBXBXBXBXBXBXBXBXNXBXXX~ J J.NXcXxXvX2XxXxXvXvXxX3XdX=XcXxXsXjX2XxX3XxXcXJ.N R 2XBXBXBXBXBXBXBXBXBXBXBXBXBXBXBXBXBXBXBXBXBXBXBXBX",
"BXBXBXBXBXBXBXBXBXBXBXBXBXBXBXBXBXBXBXNX>.N $.;XdX<XxX1XjX*XcXxXsXoXxX2XjX4XbX2XxXlXxXvXU.L ;.BXNXBXBXBXBXBXBXBXBXBXBXBXBXBXBXBXBXBXBXBXBXBXBXBX",
"BXBXBXBXBXBXBXBXBXBXBXBXBXBXBXBXBXBXBXBXBXL./ F 1.jXVXxXwX<X4XxXdXOXxXvXeX1XcX1XcX.XxXxX+.K 4XBXBXBXBXBXBXBXBXBXBXBXBXBXBXBXBXBXBXBXBXBXBXBXBXBX",
"BXBXBXBXBXBXBXBXBXBXBXBXBXBXBXBXBXBXBXBXBXBXmXA.H Q =.1XbXsXjXXX1X4XxXxXxXvXbXsXxX2XiXxXI o.BXBXBXBXBXBXBXBXBXBXBXBXBXBXBXBXBXBXBXBXBXBXBXBXBXBX",
"BXBXBXBXBXBXBXBXBXBXBXBXBXBXBXBXBXBXBXBXBXBXBXNXNX1.W R *.L.bXbXgXxXxX=XdX-XqX1XxXcXbX+.F 4XBXBXBXBXBXBXBXBXBXBXBXBXBXBXBXBXBXBXBXBXBXBXBXBXBXBX",
"BXBXBXBXBXBXBXBXBXBXBXBXBXBXBXBXBXBXBXBXBXBXBXBXBXBXxXD.~ G ] | K.cXrXVXmXmXmXcX].c./ / :XBXBXBXBXBXBXBXBXBXBXBXBXBXBXBXBXBXBXBXBXBXBXBXBXBXBXBX",
"BXBXBXBXBXBXBXBXBXBXBXBXBXBXBXBXBXBXBXBXBXBXBXBXBXBXBXBXmX+Xn.X.V ) O.[ { &.} [ ! I $.cXBXBXBXBXBXBXBXBXBXBXBXBXBXBXBXBXBXBXBXBXBXBXBXBXBXBXBXBX",
"BXBXBXBXBXBXBXBXBXBXBXBXBXBXBXBXBXBXBXBXBXBXBXBXBXBXBXBXBXBXBXBXNXV.1.-.$.$.%.<.D.vXBXBXBXBXBXBXBXBXBXBXBXBXBXBXBXBXBXBXBXBXBXBXBXBXBXBXBXBXBXBX",
"BXBXBXBXBXBXBXBXBXBXBXBXBXBXBXBXBXBXBXBXBXBXBXBXBXBXBXBXBXBXBXBXBXBXBXBXBXBXBXBXBXBXBXBXBXBXBXBXBXBXBXBXBXBXBXBXBXBXBXBXBXBXBXBXBXBXBXBXBXBXBXBX",
"BXBXBXBXBXBXBXBXBXBXBXBXBXBXBXBXBXBXBXBXBXBXBXBXBXBXBXBXBXBXBXBXBXBXBXBXBXBXBXBXBXBXBXBXBXBXBXBXBXBXBXBXBXBXBXBXBXBXBXBXBXBXBXBXBXBXBXBXBXBXBXBX"
};
