/* XPM */
static char *Free_Converter_com_rsz_tangent_84475336[] = {
/* columns rows colors chars-per-pixel */
"70 77 256 2 ",
"   c #667074",
".  c #5AAD37",
"X  c #4CB938",
"o  c #58B836",
"O  c #4DB630",
"+  c #66AD37",
"@  c #67B938",
"#  c #57AF1C",
"$  c #4EC333",
"%  c #65C63A",
"&  c #49BA40",
"*  c #5DBD45",
"=  c #58B550",
"-  c #65B846",
";  c #64AD53",
":  c #67B653",
">  c #70BA54",
",  c #64AF4B",
"<  c #73B867",
"1  c #6DBA60",
"2  c #5EC247",
"3  c #55C152",
"4  c #65C44B",
"5  c #73C35A",
"6  c #71C752",
"7  c #78C26D",
"8  c #6FC860",
"9  c #84B86D",
"0  c #84C97B",
"q  c #8BD373",
"w  c #7EBA83",
"e  c #42AFB7",
"r  c #75D291",
"t  c #0699DE",
"y  c #04A4DD",
"u  c #15A5DE",
"i  c #15B3DD",
"p  c #26B6DE",
"a  c #079DE8",
"s  c #109EEF",
"d  c #03A4E3",
"f  c #01A4EC",
"g  c #0DABEC",
"h  c #06A9E8",
"j  c #16ABEC",
"k  c #15A9E8",
"l  c #07B7E9",
"z  c #1CB4E6",
"x  c #1BB2EC",
"c  c #16B7E8",
"v  c #03ABF2",
"b  c #07A6F5",
"n  c #17AAF6",
"m  c #07B4F7",
"M  c #14B3F5",
"N  c #1BB6F5",
"B  c #2BBCEE",
"V  c #27B5E8",
"C  c #39B6E9",
"Z  c #25ACF7",
"A  c #28B7F7",
"S  c #38B9F4",
"D  c #2EACEB",
"F  c #49B7DD",
"G  c #7BBFDD",
"H  c #47B9EC",
"J  c #52BAE6",
"K  c #48BCFB",
"L  c #55B9F5",
"P  c #6CB6ED",
"I  c #37C3DD",
"U  c #1CC8F8",
"Y  c #2EC2F3",
"T  c #38C3FB",
"R  c #30C6ED",
"E  c #73CEDA",
"W  c #49C5E9",
"Q  c #59C6EB",
"!  c #57D4E8",
"~  c #4CC6F5",
"^  c #58C8F6",
"/  c #6BC8E6",
"(  c #76C9E7",
")  c #69D5E9",
"_  c #7AD7E8",
"`  c #65CCF5",
"'  c #76CBFA",
"]  c #6BD6F5",
"[  c #74D3FD",
"{  c #7AD6F6",
"}  c #7BE9F9",
"|  c #8BBE87",
" . c #C5B3B0",
".. c #90D68D",
"X. c #A8CC91",
"o. c #9EE399",
"O. c #99D2A6",
"+. c #AED9B9",
"@. c #ACD9AA",
"#. c #ADE4B5",
"$. c #C1DEBB",
"%. c #9BB2D8",
"&. c #A9B4D7",
"*. c #AFB2D3",
"=. c #ABB8E3",
"-. c #B8BFE6",
";. c #A9AFE2",
":. c #C5B7CC",
">. c #C5BBDB",
",. c #C4BBE1",
"<. c #88D7DF",
"1. c #B6C4DA",
"2. c #B9DBD7",
"3. c #B1D7C5",
"4. c #B7F1DA",
"5. c #86CDE8",
"6. c #88DAEB",
"7. c #97D9EC",
"8. c #87CCF6",
"9. c #8CDDFF",
"0. c #86D7F8",
"q. c #9BDDFF",
"w. c #96D7F8",
"e. c #9DCAFB",
"r. c #B9CAEA",
"t. c #A5D9E9",
"y. c #BBD7E6",
"u. c #A3DCFC",
"i. c #A7D9F8",
"p. c #B9DCF2",
"a. c #83E2FB",
"s. c #94E1FD",
"d. c #9AE3FC",
"f. c #96E9F7",
"g. c #92E7EB",
"h. c #B7E4EB",
"j. c #ABEBFB",
"k. c #A6E7FA",
"l. c #BBEAFE",
"z. c #B4E7F9",
"x. c #BBF2FA",
"c. c #A6ECF1",
"v. c #C8C6DC",
"b. c #C7D8D9",
"n. c #CFD7CB",
"m. c #CAE5DE",
"M. c #CBEDD0",
"N. c #E3F4DD",
"B. c #C4C3E9",
"V. c #C6DBE7",
"C. c #D6D7E9",
"Z. c #C6CDF3",
"A. c #C3DCFD",
"S. c #C9D9F5",
"D. c #D7DDF8",
"F. c #D2C4E2",
"G. c #E4D8EC",
"H. c #E4D8F3",
"J. c #CCECEC",
"K. c #C5E5E9",
"L. c #D5EBE4",
"P. c #DBEAE4",
"I. c #DBE6ED",
"U. c #D4EAEC",
"Y. c #DBEAEC",
"T. c #D8E5E6",
"R. c #CDF4E7",
"E. c #DDF4E5",
"W. c #D5F3EC",
"Q. c #DCF5EC",
"!. c #D2FDED",
"~. c #DBFCEC",
"^. c #D7FAE5",
"/. c #CCE4F5",
"(. c #C4EBF4",
"). c #CDEAF4",
"_. c #C5E5FC",
"`. c #CDE4FD",
"'. c #C2EDFE",
"]. c #CDECFE",
"[. c #C6E6F2",
"{. c #DBE4F2",
"}. c #D5EBF5",
"|. c #DBEBF3",
" X c #D4E5FD",
".X c #DBE5FE",
"XX c #D4EBFE",
"oX c #DBEBFE",
"OX c #D5E6F5",
"+X c #CEF4FE",
"@X c #CDFCFE",
"#X c #CAF8F5",
"$X c #D4F4F3",
"%X c #DBF4F3",
"&X c #DCFCF5",
"*X c #D4F4FE",
"=X c #DCF4FE",
"-X c #D4FCFE",
";X c #DBFCFE",
":X c #D4FBF5",
">X c #E3E5E3",
",X c #E4ECE4",
"<X c #E4E3EC",
"1X c #E3EEEA",
"2X c #EBEBE8",
"3X c #F8EEE4",
"4X c #E4F4E5",
"5X c #EBF4E5",
"6X c #E3FCE6",
"7X c #E4F4EC",
"8X c #EAF5EB",
"9X c #E5FEED",
"0X c #EAFCE9",
"qX c #FDF4EE",
"wX c #F2FBED",
"eX c #F6F8E7",
"rX c #E2E5F3",
"tX c #E3EBF4",
"yX c #EDECF4",
"uX c #E5E5FE",
"iX c #EAE6FE",
"pX c #E4EDFE",
"aX c #EBECFE",
"sX c #ECE6F1",
"dX c #F3ECF3",
"fX c #FCEBF5",
"gX c #F3ECFD",
"hX c #FDEBFE",
"jX c #F9E3FF",
"kX c #E4F4F3",
"lX c #EBF4F3",
"zX c #E3FDF4",
"xX c #EBFCF5",
"cX c #E4F4FE",
"vX c #EAF4FE",
"bX c #E4FCFE",
"nX c #EAFCFE",
"mX c #F2F5F4",
"MX c #F1FDF6",
"NX c #FBFCF5",
"BX c #F3F5FE",
"VX c #FCF4FE",
"CX c #F3FCFE",
"ZX c gray100",
"AX c #FDF2F6",
"SX c #E5CDD4",
"DX c black",
"FX c black",
"GX c black",
"HX c black",
"JX c black",
"KX c black",
"LX c black",
"PX c black",
"IX c black",
"UX c black",
/* pixels */
"ZXZXZXZXZXZXZXZXZXZXZXZXZXZXZXZXZXZXZXZXZXZXZXZXZXZXZXZXZXZXZXZXZXZXZXZXZXZXZXZXZXZXZXZXZXZXZXZXZXZXZXZXZXZXZXZXZXZXZXZXZXZXZXZXZXZXZXZXZXZX",
"ZXZXZXZXZXZXZXZXZXZXZXZXZXZXZXZXZXZXZXZXZXZXZXZXZXZXZXZXZXZXZXZXZXZXZXZX-Xl.u.s.q.s.z.+XZXZXZXZXZXZXZXZXZXZXZXZXZXZXZXZXZXZXZXZXZXZXZXZXZXZX",
"ZXZXZXZXZXZXZXZXZXZXZXZXZXZXZXZXZXZXZXZXZXZXZXZXZXZXZXZXZXZXZXZXZX@X' S c x Y V B B c N A T 0.x.ZXZXZXZXZXZXZXZXZXZXZXZXZXZXZXZXZXZXZXZXZXZX",
"ZXZXZXZXZXZXZXZXZXZXZXZXZXZXZXZXZXZXZXZXZXZXZXZXZXZXZXZXZXZXZXZX7.m A ( _.;X=XbXnXbXvXXXw.! B N n 8.vXZXCXZXZXZXZXZXZXZXZXZXZXZXZXZXZXZXZXZX",
"ZXZXZXZXZXZXZXZXZXZXZXZXZXZXZXZXZXZXZXZXZXZXZXZXZXZXZXZXZXZXNX` g f.bXCXnXvXcX-XcXvX*XnXnXvXVXj.) Y x { *XZXZXZXZXZXZXZXZXZXZXZXZXZXZXZXZXZX",
"ZXZXZXZXZXZXZXZXZXZXZXZXZXZXZXZXZXZXZXZXZXZXZXZXZXZXZXZXZXZXu.v '.ZXcXoXvX*XvXbXCX=XBX].vX=XbX=XVX;Xf.A l 0.ZXZXZXZXZXZXZXZXZXZXZXZXZXZXZXZX",
"ZXZXZXZXZXZXZXZXZXZXZXZXZXZXZXZXZXZXZXZXZXZXZXZXZXZXZXZXZXCXA ! nXcX|.bXnXpXcXnX].cXcXxX8X;XpXnX*XpXvXbXg.j Z =XZXZXZXZXZXZXZXZXZXZXZXZXZXZX",
"ZXZXZXZXZXZXZXZXZXZXZXZXZXZXZXZXZXZXZXZXZXZXZXZXZXZXZXZXZX[ g cX=XlX!.vX*XvX*X8XcXbXiX*XcXkX8X*XcX~.cXoXCX'.! g j.ZXZXZXZXZXZXZXZXZXZXZXZXZX",
"ZXZXZXZXZXZXZXZXZXZXZXZXZXZXZXZXZXZXZXZXZXZXZXZXZXZXZXZX-Xc 7.;XvXcXpXcX=XvX=X%X=XbX;X=XvXcXlX=XvXtXbXvXcXBXvX] a 0.ZXVXZXZXZXZXZXZXZXZXZXZX",
"ZXZXZXZXZXZXZXZXZXZXZXZXZXZXZXZXZXZXZXZXZXZXZXZXZXZXZXZX` Y u.l.vXcXbXcX4XpXnXbXvX,XkXvX;XnX+XvXbXnX+XvX].cX;XZX0.v 9.ZXZXZXZXZXZXZXZXZXZXZX",
"ZXZXZXZXZXZXZXZXZXZXZXZXZXZXZXZXZXZXZXZXZXZXZXZXZXZXZX`.d z.l.7.gX!.cXcX*XvX.XnX*XbX-XvX*XvX=XcXvX*XnX8XpXnXpX=XCXg.f k.ZXZXZXZXZXZXZXZXZXZX",
"ZXZXZXZXZXZXZXZXZXZXZXZXZXZXZXZXZXZXZXZXZXZXZXZXZXZXZXA ~ ;X#XS.;XsXcXbXcXbX*XvX*XpXcX%X7X;XvXJ.xX=XcX$XcX-XcX;XcXCX{ v *XZXZXZXZXZXZXZXZXZX",
"ZXZXZXZXZXZXZXZXZXZXZXZXZXZXZXZXZXZXZXZXZXZXZXZXZXZXs.i l.vX=XbX;XnXcX+XmXXXBXE.BXbXbXnXcX=XvXkXcXnXcXcXvXcX4XaXaX*XbXQ x ZXZXZXZXZXZXZXZXZX",
"ZXZXZXZXZXZXZXZXZXZXZXZXZXZXZXZXZXZXZXZXZXZXZXZXZXnXB ` nXcXcXvXh.'.vXcX1X;X=XcX}.<Xy.Z.vX;X=XvXcX=XcX=XvX*XvX;XvXbXvX@Xk ' ZXZXZXZXZXZXZXZX",
"ZXZXZXZXZXZXZXZXZXZXZXZXZXZXZXZXZXZXZXZXZXZXZXZXZX5.c =XcXuX!.I.t.7.~.C.1.*.p.oXS.1.1.1.nXzX8X*XbX9X7X=XvX=XvX*X8X}.pXnX8.x =XZXZXZXZXZXZXZX",
"ZXZXZXZXZXZXZXZXZXZXZXZXZXZXZXZXZXZXZXVXmXdXmXZXpXt P 1.T.-Xy.&.&.e.p._.Z.[.uXL.aX).p.zXaXcXkX=XcXoXcXvX%XbXcXvXkX;XvXvXnXN { ZXZXZXZXZXZXZX",
"ZXZXZXZXZXZXZXZXZXZXZXZXZXZXZXZXD.C.ZXCX>.*.V.ZXP C v.A.*XD.T.oXoX].J.%XXXP.oX.X=X{.*.K.nXXXbXuXvX-XvX;XkX9X*XvX*XvX;XcXnX6.Z lXZXZXZXZXZXZX",
"ZXZXZXZXZXZXZXZXZXZXZXZXZXZXZXmX>.G.gXlX3XnXNXZ.k 7.bX{.Y.].cXT.Y.*XV.=Xy. XU.U.J.r.,.;XcXaXcXcX*XnXcXcXpXbXcXvX*X5X;XcXnX*Xv z.ZXZXZXZXZXZX",
"ZXZXZXZXZXZXZXZXZXZXZXZXZXZXZXS.:.MXVXkXCXAXgXF S %X X`.:XiXL.XX).pXpX_.{ e._.=XuX[.pXbXcX-XnXR.xX=X,XyX+XnX}.cXcXlXbXcXcXcX! ' ZXZXZXZXZXZX",
"ZXZXZXZXZXZXZXZXZXZXZXZXZXZXZXfX4XVXfXeXvXVXd.y A.9XrXtXY.{.+XaXU.{.).Y.U.t.A.tXD.xXoXQ.cXvXcXcXaX-XnX*XnXuX6XcX*XvX*XkX}.CX' H ZXZXZXZXZXZX",
"ZXZXZXZXZXZXZXZXZXZXZXZXZXZXZXcXBXgX4XBX2XmXp ' vX`.].T.oXoX>X XoXpX[.oX*XsX!.B.v.;XyX!.nX=X=XcXvXcXcXcX-XvX-XuXvXcXbXkXcXCX5.V ZXZXZXZXZXZX",
"ZXZXZXZXZXZXZXZXZXZXZXZXZXG.v.fXeXBXgXVXNX8.n h. X~.{.-X,XXX}.oXL.OXbX.XP.OX).%.G q.*X=XaXkX4XcX*XcXcXnX,XcXcXlXzX=X=XcX@XhX} S ZXZXZXZXZXZX",
"ZXZXZXZXZXZXZXZXZXZXZXZXlX*.uXZXiXBXxXgX$Xu 8.cXC.XX|.OXXX|.+X}.|.oXT. XpXoXV.b.+Xk._ ;X=XnX*XvXaXW.vX;XcXcX=XlX}.nXcX=XpXCX) ~ ZXZXZXZXZXZX",
"ZXZXZXZXZXZXZXZXZXZXZXZXtXC.AX5XBXgX7XhXQ p #X.XU.oXI.XXiXU.oX}.}.*XU.aXW.oX*X=XnXcXJ.vX*XoX=XvX*X8XcX=X=XcX;XpXbXoXlXQ.vX%Xx 9.ZXZXZXZXZXZX",
"ZXZXZXZXZXZXZXZXZXZXZXZXfXhXnXAXaX5XfX].k 7.vXT.|.oXoX>XXXP.oX#X{.oX{..X$XC.}.bXpXcXbXvXeXq.0.h.bXvXbXvXnXE.lX=XbX*XaXzXbX' d |.ZXZXZXZXZXZX",
"ZXZXZXZXZXZXZXZXZXZXlXG.,XNXdXvXlXBXNXF K pX[.oX}.T.-X.X&X{. XtX}.oXU.bXv.%.CX-XcXcX*XvX=XbXA.k.=XcX'.h..X*XBX*XlXkXnXXX'.d 0.ZXZXZXZXZXZXZX",
"ZXZXZXZXZXZXZXZXZXZXB.-.CXdXxXhXqXVXt.b z.tX}.<X$XoXT. X|.|.`.(.|.*XT.J.;.S.vXvX*XcXcXvX*XnXnXvXcX4Xk.6.d.bXnXl.h.w.*XBX( A bXZXZXZXZXZXZXZX",
"ZXZXZXZXZXZXZXZXZXdX:.eXjXBXhXkXvXCXD J yXK.-X X}.T.|.=X XL.vXpXtXpX.XtX[.CX+XvX=XcX6X;XpX*XaX+XvX:XcXnX=X=XvXh.c._.cX;XB ) ZXZXZXZXZXZXZXZX",
"ZXZXZXZXZXZXZXZXZXBXvXBXmX2XCX2XZXE j (.uX|.uXiXpXoX.XBXm.R.4.2.3.+.y.bXaXbXpXE.vX*XvXXXbXkX6XcXvXcXcX=XkXlXcXcXnX*XNX5.m ZXZXZXZXZXZXZXZXZX",
"ZXZXZXZXZXZXZXZXvXmXdXBXVXhXwXVXpXZ / N.2.#.3...O.X.q < 9 9 @ @ o . : L.cX%XcX;XcXvXbXvXcXvX*XiX;XpXnXoX&XkX;XaXbX*XbXx { ZXZXZXZXZXZXZXZXZX",
"ZXZXZXZXZXZXZX2X*.G.N.M.n.X.o.| 7 = 5 < 6 1 + 4 . O X o * o : 4 , 6 # #.CX=XbXvX+XnX X7X7X=XbXcX;XaX+XvXbXcXcX$XbXvXs.s kXZXZXZXZXZXZXZXZXZX",
"ZXZXZXZXZX$.0 > 5 - O + % . % * - @ = $ : o 6 o ; o - o 3 @ O o & . 2 M.uXlX%XnXcXxXcXcXvX=XvX8X%XnX4XtXbXvX=XlX0X*Xh { ZXZXZXZXZXZXZXZXZXZX",
"ZXZXZXZXM.o o , $ 4 > X 2 - & * O X % - . O 3 4 3 8 0 < 0 w ....X.o.b.&X;XlX%X=X%XkX.XnX-XvX*XvX*XcXcX=XcXuX-XvXcX/ A CXZXZXZXZXZXZXZXZXZXZX",
"ZXZXZXZXwX..> > 7 q 8 0 ..X.r e O.$.+.4.2.R.K.J.T._.!.#X X-X@XS.].nXvXvXbXpXnXbXcXcXbXcX=X5X;XcXnXcXcX;XvX6XzXnX Xx _ ZXZXZXZXZXZXZXZXZXZXZX",
"ZXZXZXZXNXG.sXCXCXVXCXVXVXVXS K ;X].oXcXoX}.oXtXpXD.kX`.*XC.kX&.r.bXcX=XaX;XvX;XcXcX&XnXcXcX=XvXoX=XkXaX-XpXXXCX5.b bXZXZXZXZXZXZXZXZXZXZXZX",
"ZXZXZXZXlX&.1XBX5XBXcXBXVXw.d [.Y.oXP.oX X1XoXK.+XtX}.{.W.oXV.;.kXXXcX-XvX-XvXQ.=XcX~.vX*XvX*X8XbXvX7XzXaXbXvX$Xn s.ZXZXZXZXZXZXZXZXZXZXZXZX",
"ZXZXZXZXB.SXZXjXMXBXgX3XoXk _ pXoX].<X XL.XX~.{.kXL.oXP.`.pXU./.nX=XcXlXcXnXcXkXcXcXbXcXvX*X=XzXyX*XvXoX=XpX;X8.M bXZXZXZXZXZXZXZXZXZXZXZXZX",
"ZXZXZXZXvXBXcXqXBXdX8XZX/ V uXoXoXL.%XoXzX XXX}..XoX|.XXtXU.nXcXcXbXcX6X$XvX+XBX+XiX;X=XvXkXcXcX-XbXnX;XvX8XY.l 9.ZXZXZXZXZXZXZXZXZXZXZXZXZX",
"ZXZXvXwXBX5XgXmXmXCXVXXXh 5.vXXX|.oXW..XK. X.XQ.pX XU.tXV.r.=XvXcX-XcXcXcXcXvXcXvXcX8XvX*X5X*XvXcXvXW.yXXXCX8.B CXZXZXZXZXZXZXZXZXZXZXZXZXZX",
"ZXZXF.n.VXdXBXBXvXaXqXH D mX X:XJ.uXJ.aXoX.XU.Q..XY.U.*X*.v.;XvX+XgXcXcX*XnX].eX*XcX$XpX;XgX=XcXnXcX%XvX;X=Xk { ZXZXZXZXZXZXZXZXZXZXZXZXZXZX",
"ZXT.&.VXvXvX3XBX3XZXi.t z. X>X}.XXoXR. XT.=X}..XP.oXK.).-.=XnXcX6XvX+XnXpX6XcXcXpXbXbXcXcX=XBXR.xX*XvXXXZX] n ZXZXZXZXZXZXZXZXZXZXZXZXZXZXZX",
"ZX<X>XvXqXyXgXBXBXdXC Q U.=X.XP..XT.oX.X%X$X2X X.X-XY.pX%XkX-XcXcXoXcXvX=XbXvX=X=X=X=XvXvX*XcXbXcXnX*XBX$Xi i.ZXZXZXZXZXZXZXZXZXZXZXZXZXZXZX",
"ZXvXBXBXAXlXeXBXeXi.l l.dX*X.X#XoX|.|.Y.XX>XXXoXP.oXC.*XnXkX=XcXvX;X7X8X*XpXcXbXvXbX^.vX+X0XcXbXXXvX=XCX8.n bXZXVXZXZXZXZXZXZXZXZXZXZXZXZXZX",
"sX1XNX,XaXG.G.pXhXf / H.(.T..X<XK.OXoX].S.U.>X|.}.C.%. XvX+XnXlX%XvXXXnX;XcXcX$XaX@XMXcXcXlX].vXcX^.vX:Xy 9.ZXZXZXZXZXZXZXZXZXZXZXZXZXZXZXZX",
",.b.NXhXZ.1.B.qX_ u =.:. X;XV.1.;.V.CX(.,.%.b.bXcX&.p.bXcXvXcX8X$XvXcXcXcX*XvX8XvXcX=XcXcX;XbXuXnX-XBX' V vXZXZXZXZXZXZXZXZXZXZXZXZXZXZXZXZX",
"BXZXZXZXVXCXZX;Xn w.MX%XkXbXkXbX%XzXCXtX=X X&XnXoXtXE.=XvX+XnX@XvXcXvX+X0X;XpXnX*XnX;XcXcX.X0X*XaXvX=Xz w.ZXZXZXZXZXZXZXZXZXZXZXZXZXZXZXZXZX",
"ZXZXZXZXZXNXZXQ x s.~ S V A C S K ] i.+XoXZXvXpX=XvX%XaXoXcXaXkXcX*XcXcXkXaXcX=XcXpXE.cXbX;XbXcX-XnX8.g ZXZXZXZXZXZXZXZXZXZXZXZXZXZXZXZXZXZX",
"ZXZXZXZXZXZX|.b l x ` ] a.a.{ _ ~ S g h J ' J.CXvXcX-XvX$XxX*X7XcX=X7XvX;X;X1XoXvXcXcX=XcXoXpXvXvX}.M 7.ZXZXZXZXZXZXZXZXZXZXZXZXZXZXZXZXZXZX",
"ZXZXZXZXZXZXI b { %XnXZXCXVXBXVXBXnX*Xd.` M x W z.bXaXcXkXpXbX*XvXoXkXcXbXvXkX;X=XcX*XvXcXcXbX@XhX] B CXZXZXZXZXZXZXZXZXZXZXZXZXZXZXZXZXZXZX",
"ZXZXZXZXZXw.f g.CXpX*XcX,X;XcX;XcXoXbXMXbXnX6.N n W +XcXvX=XcXpXbXcXvX+XaX=XvXuXbXtXnX!.8X*X7X7XbXb w.ZXCXZXZXZXZXZXZXZXZXZXZXZXZXZXZXZXZXZX",
"ZXZXZXZXZXH L ZXpX;XcX=XcX-XvX*X7XcXkX7XvXcXBXCXj.Y y K !.VX-XcXnX*XcX7XnX=X=XnX%X7XbXbXcXcXbXCX( A 9XZXZXZXZXZXZXZXZXZXZXZXZXZXZXZXZXZXZXZX",
"ZXZXVXZX=XV '.-XvXoXcXbX=XnXcXkXkX*XnX-XoXbX*XnXpXNXf.T i { CXvX^.oXvXW.bXvXXXvX*XcXvX*XvX*XbX=Xj [ ZXZXZXZXZXZXZXZXZXZXZXZXZXZXZXZXZXZXZXZX",
"ZXZXZXZXz.M oXcXbX5X=XvXpXbX%X=XvXcXcXpXCX%X5XbXvX*XBX-X' h S oXmXcXcXcXaXcX6XxXcXcX*XpXzXuXCX/ n ZXZXZXZXZXZXZXZXZXZXZXZXZXZXZXZXZXZXZXZXZX",
"ZXZXZXZX'.c +XvX*XvX*XnX*X9XtXnX*XvXnX9XcXvX*XbXaXbXpXbXVX+XA u z.BX*XvX-XvX*XaXXXvX7XvX7X&XcXk i.ZXZXZXZXZXZXZXZXZXZXZXZXZXZXZXZXZXZXZXZXZX",
"ZXZXZXZXnXB 7.0X-XvXcXcXcXbX=X=X=XvX*XkXcX*XvX*XvXpXcX4X*XnX=X] v 5.bXnXL.cXvXcXnXcXQ.=X=XaXa.j nXZXZXZXZXZXZXZXZXZXZXZXZXZXZXZXZXZXZXZXZXZX",
"ZXZXZXZXZXS L CXvX*X7XkX*XbXcXkX5XcX=XbXvX=XcX0X$XbXcX*XaXzXoXCX5.j a.nXcXnX+XgX%XvXbXpXbXbXg 0.ZXZXZXZXZXZXZXZXZXZXZXZXZXZXZXZXZXZXZXZXZXZX",
"ZXZXZXZXZXj.V _.cXcXvXcXcXnXXXvX*XcX=XcXQ.vX*XnXoXcXiX;XcX8X=X;XnXs.t ` CXuXcXxX^.oXnX;XvX{ A 0XZXZXZXZXZXZXZXZXZXZXZXZXZXZXZXZXZXZXZXZXZXZX",
"ZXZXZXZXZXZXA P 9XlX-XvX*X7XkXvX*XaXbXvXW.vX=XbXvX-XvX;XcX*XlXbXuXnXw.m / CX+XvXvX-XvXXXcXx 0.ZXZXZXZXZXZXZXZXZXZXZXZXZXZXZXZXZXZXZXZXZXZXZX",
"ZXZXZXZXZXZXk.m '.vXkXcXbXlXkXbXvXE.pX;XvX=XvX].xXE.vXaXvX;XaX@XbX=XCX5.b k.lXcXcXuX4XCX/ v ZXZXZXZXZXZXZXZXZXZXZXZXZXZXZXZXZXZXZXZXZXZXZXZX",
"ZXZXZXZXZXZXZXQ V vXQ.xXoXpX*X=XaX*XBX-XaXoXkXbX=XnX*XnX$XvXcXlXcXpX=XnX^ x U.zXvX@XBX).n 6.ZXZXZXZXZXZXZXZXZXZXZXZXZXZXZXZXZXZXZXZXZXZXZXZX",
"ZXZXZXZXZXZXZX*Xx ^ *XvX*XbXvX4XcXnX*XcXcXlXkXbXuXvX*XnX$XcXlX!.nXXXcXcXCXY H bXaXcXcX{ x vXZXZXZXZXZXZXZXZXZXZXZXZXZXZXZXZXZXZXZXZXZXZXZXZX",
"ZXZXZXZXZXZXZXZX+Xd { ZXuXbX*XMX+XaXzX8X+XaX@XnXbXcXaXzXnXcXvXoXcXbXlX+XaXl.a j.vXcX&Xf q.ZXZXZXZXZXZXZXZXZXZXZXZXZXZXZXZXZXZXZXZXZXZXZXZXZX",
"ZXZXZXZXZXZXZXZXZXj.f ( CXcXoXcXcX=XbXcXpXbXcXpX%X7XcX-XaX*XcXnXbX*X8X=XMXnXW Z ZXE.' A bXZXZXZXZXZXZXZXZXZXZXZXZXZXZXZXZXZXZXZXZXZXZXZXZXZX",
"ZXZXZXZXZXZXZXZXZXZXu.l ( nXvX*X7XkX=XvXcXvX*XnXoXcX XnX=XbXP.cXvXcXvX-XbXaXx.n t.-Xn 5.ZXZXZXZXZXZXZXZXZXZXZXZXZXZXZXZXZXZXZXZXZXZXZXZXZXZX",
"ZXZXZXZXZXZXZXZXZXZXZXu.v Q cXvX|.zXiX@X2XcX%XbXcXbXbX,XaXpX&XoX;X=XcXvX^.cXCXS ] ( N ZXZXZXZXZXZXZXZXZXZXZXZXZXZXZXZXZXZXZXZXZXZXZXZXZXZXZX",
"ZXZXZXZXZXZXZXZXZXZXZXZX'.b C @XVX+XvXcXbX;XvX1X:XiX=XbXvXXXvXcXzXaX-XvXaX*XvX[ B V f.ZXZXZXZXZXZXZXZXZXZXZXZXZXZXZXZXZXZXZXZXZXZXZXZXZXZXZX",
"ZXZXZXZXZXZXZXZXZXZXZXZXZXcXW m 6.MX8XcX`.bXvXcXvXcX*XvX*XnXbXvX!.lXcXcX;X*XCXc.b S CXZXZXZXZXZXZXZXZXZXZXZXZXZXZXZXZXZXZXZXZXZXZXZXZXZXZXZX",
"ZXZXZXZXZXZXZXZXZXZXZXZXZXZXNX' d L #XCXcXvX+XvX-X9X8XcX=XpX5XoX;XaXkXoXbXvXvXg.f 7.ZXZXZXZXZXZXZXZXZXZXZXZXZXZXZXZXZXZXZXZXZXZXZXZXZXZXZXZX",
"ZXZXZXZXZXZXZXZXZXZXZXZXZXZXZXZX*XT t ' {.xXbX=XbXpXvX=XcXcXbX-XiX;XvX!.MXXXBX~ D MXZXZXZXZXZXZXZXZXZXZXZXZXZXZXZXZXZXZXZXZXZXZXZXZXZXZXZXZX",
"ZXZXZXZXZXZXZXZXZXZXZXZXZXZXZXZXZXZXi.U x ( '.yXvXvX*XlX7X=XoXcXcX;X=XpXvX=X;Xh [ ZXZXZXZXZXZXZXZXZXZXZXZXZXZXZXZXZXZXZXZXZXZXZXZXZXZXZXZXZX",
"ZXZXZXZXZXZXZXZXZXZXZXZXZXZXZXZXZXZXZXCXq.h c ^ x.cXbXBX*XCXcXvXR.dXnXnXbXoXV C ZXZXZXZXZXZXZXZXZXZXZXZXZXZXZXZXZXZXZXZXZXZXZXZXZXZXZXZXZXZX",
"ZXZXZXZXZXZXZXZXZXZXZXZXZXZXZXZXZXZXZXZXZXZXx.~ k k J s.(.-XsXbXcXbX&XS.0.f C vXZXZXZXZXZXZXZXZXZXZXZXZXZXZXZXZXZXZXZXZXZXZXZXZXZXZXZXZXZXZX",
"ZXZXZXZXZXZXZXZXZXZXZXZXZXZXZXZXZXZXZXZXZXZXZXZXXXw.) N k M H R C S V b V q.nXZXZXZXZXZXZXZXZXZXZXZXZXZXZXZXZXZXZXZXZXZXZXZXZXZXZXZXZXZXZXZX",
"ZXZXZXZXZXZXZXZXZXZXZXZXZXZXZXZXZXZXZXZXZXZXZXZXZXZXZXnX}.k.s.w.f.f.c.XXnXZXZXZXZXZXZXZXZXZXZXZXZXZXNXZXZXZXZXZXZXZXZXZXZXZXZXZXZXZXZXZXZXZX",
"ZXZXZXZXZXZXZXZXZXZXZXZXZXZXZXZXZXZXZXZXZXZXZXZXZXCXZXZXZXZXZXZXZXZXZXZXZXVXZXZXZXZXZXZXZXZXZXZXZXZXZXZXZXZXZXZXZXZXZXZXZXZXZXZXZXZXZXZXZXZX",
"ZXZXZXZXZXZXZXZXZXZXZXZXZXZXZXZXZXZXZXZXZXZXZXZXZXZXZXZXNXZXZXZXZXZXZXZXZXZXZXZXZXZXZXZXZXZXZXZXZXyX .qXZXZXZXZXZXZXZXZXZXZXZXZXZXZXZXZXZXZX",
"ZXZXZXZXZXZXZXZXZXZXZXZXZXZXZXZXZXZXZXZXZXZXZXZXZXZXZXZXZXZXZXZXZXZXZXZXZXZXZXZXZXZXZXZXZXZXZXZXZX>X  <XZXZXZXZXZXZXZXZXZXZXZXZXZXZXZXZXZXZX"
};
